<svg width="501" height="507" viewBox="0 0 501 507" fill="none" xmlns="http://www.w3.org/2000/svg">
<path d="M331.654 358.316C348.104 346.699 351.047 316.265 347.024 295.847C342.318 272.001 330.008 271.371 327.794 252.546C323.673 217.487 364.671 205.303 363.321 169.614C362.214 140.441 334.39 137.516 334.633 105.157C334.813 81.8054 349.382 72.1049 342.84 51.7319C342.282 49.9862 335.974 31.296 320.01 26.9226C303.894 22.5133 287.354 35.2734 279.174 45.5588C264.057 64.564 275.251 77.927 265.595 107.029C252.457 146.659 223.932 145.354 220.287 176.534C217.273 202.279 236.035 209.109 232.129 237.59C228.503 264.037 211.019 267.763 210.281 285.787C208.571 327.262 298.098 382.018 331.654 358.316Z" fill="#6165D7"/>
<path opacity="0.7" d="M307.934 377.555C308.042 377.555 308.15 377.501 308.204 377.402C308.294 377.249 308.24 377.06 308.087 376.97C292.753 367.962 279.984 356.147 270.122 341.848C260.781 328.305 251.125 314.294 251.899 296.927C252.484 283.789 258.648 276.707 266.459 267.744C274.063 259.015 283.521 248.154 290.153 227.997C293.941 216.488 298.647 202.171 295.003 184.938C292.879 174.905 288.965 169.245 285.509 164.251C281.892 159.022 279.039 154.892 279.606 147.567C280.524 135.608 286.985 127.887 294.454 118.951C299.07 113.435 303.84 107.721 308.042 100.279C319.866 79.3302 320.208 51.1914 309.032 16.6456C308.978 16.4837 308.798 16.3847 308.636 16.4387C308.474 16.4926 308.375 16.6726 308.429 16.8346C319.542 51.2094 319.227 79.1773 307.484 99.9641C303.309 107.352 298.557 113.039 293.959 118.537C286.418 127.554 279.903 135.347 278.967 147.504C278.382 155.054 281.442 159.481 284.978 164.592C288.398 169.533 292.267 175.139 294.373 185.055C297.99 202.117 293.302 216.344 289.541 227.781C282.954 247.812 273.532 258.628 265.964 267.312C258.072 276.365 251.845 283.519 251.251 296.882C250.468 314.465 260.187 328.557 269.591 342.19C279.507 356.57 292.348 368.448 307.763 377.501C307.826 377.537 307.88 377.555 307.934 377.555Z" fill="white"/>
<path opacity="0.7" d="M295.849 193.514C295.921 193.514 296.002 193.487 296.056 193.433C322.386 169.911 334.75 148.062 340.482 133.88C346.709 118.483 346.691 108.513 346.691 108.414C346.691 108.243 346.556 108.081 346.376 108.099C346.205 108.099 346.061 108.243 346.061 108.414C346.061 108.513 346.07 118.384 339.879 133.673C334.165 147.783 321.855 169.524 295.633 192.956C295.507 193.073 295.489 193.271 295.606 193.406C295.669 193.478 295.759 193.514 295.849 193.514Z" fill="white"/>
<path opacity="0.7" d="M283.26 244.069C283.35 244.069 283.44 244.033 283.503 243.952C283.611 243.817 283.593 243.619 283.458 243.511C268.952 231.66 257.928 218.225 250.685 203.584C244.889 191.868 241.497 179.36 240.588 166.402C239.04 144.328 245.339 128.383 245.402 128.221C245.465 128.059 245.393 127.879 245.231 127.807C245.069 127.744 244.889 127.816 244.817 127.978C244.754 128.14 238.401 144.193 239.958 166.402C240.867 179.45 244.287 192.039 250.118 203.836C257.398 218.567 268.484 232.074 283.062 243.988C283.116 244.042 283.188 244.069 283.26 244.069Z" fill="white"/>
<path opacity="0.7" d="M259.35 327.595C259.377 327.595 259.413 327.595 259.44 327.586C298.278 316.194 318.552 295.461 328.721 280.073C339.744 263.39 341.598 249.199 341.616 249.064C341.634 248.893 341.517 248.731 341.337 248.713C341.166 248.695 341.004 248.812 340.986 248.992C340.968 249.136 339.123 263.201 328.172 279.758C318.067 295.047 297.901 315.645 259.26 326.983C259.089 327.028 258.999 327.208 259.044 327.379C259.089 327.505 259.215 327.595 259.35 327.595Z" fill="white"/>
<path opacity="0.7" d="M309.059 96.5092C309.14 96.5092 309.212 96.4822 309.275 96.4282C309.401 96.3112 309.41 96.1133 309.293 95.9783C287.444 72.2848 284.78 47.5835 286.4 31.026C288.146 13.0827 295.147 0.601582 295.219 0.475601C295.309 0.322624 295.255 0.133652 295.102 0.0436659C294.949 -0.0463206 294.76 0.00767134 294.67 0.160648C294.598 0.28663 287.534 12.8847 285.77 30.963C284.142 47.6465 286.823 72.5368 308.834 96.4012C308.888 96.4732 308.978 96.5092 309.059 96.5092Z" fill="white"/>
<path d="M270.58 383.728C273.478 386.797 282.486 390.927 285.275 391.035C303.848 391.755 338.538 395.346 353.737 382.892C356.329 380.768 350.057 366.82 351.316 363.319C349.472 353.457 348.221 350.154 351.073 339.914C359.496 309.697 422.964 318.623 405.686 267.196C393.025 229.528 363.645 211.269 413.686 179.999C463.737 148.729 523.146 47.9437 453.406 21.7396C413.38 6.70288 394.123 65.4191 353.458 72.2491C314.809 78.7371 300.168 107.74 305.009 150.285C309.86 192.822 285.059 186.217 251.701 197.033C211.639 210.027 242.082 264.064 258.261 287.821C271.282 306.934 291.565 364.426 270.58 383.728Z" fill="url(#paint0_linear_111_152)"/>
<g opacity="0.7">
<g opacity="0.7">
<path opacity="0.7" d="M317.823 387.525L318.705 387.372C294.751 251.249 354.151 115.657 477.603 24.672L477.072 23.9521C418.563 67.0737 372.76 122.37 344.603 183.876C315.016 248.523 305.756 318.946 317.823 387.525Z" fill="#FCFDFE"/>
<path opacity="0.7" d="M234.424 200.514C265.055 222.669 300.6 271.108 313.657 308.498L314.503 308.201C301.401 270.668 265.712 222.03 234.946 199.785L234.424 200.514Z" fill="#FCFDFE"/>
<path opacity="0.7" d="M313.432 360.744L314.323 360.843C316.51 340.371 328.964 321.798 351.343 305.637C367.748 293.785 389.003 283.482 414.523 275.005L414.244 274.15C388.643 282.654 367.307 293.003 350.822 304.908C328.226 321.231 315.646 340.012 313.432 360.744Z" fill="#FCFDFE"/>
<path opacity="0.7" d="M348.95 175.292L349.841 175.436C355.951 137.065 338.304 100.216 322.413 76.0635L321.666 76.5584C337.458 100.576 355.015 137.209 348.95 175.292Z" fill="#FCFDFE"/>
<path opacity="0.7" d="M396.642 100.215L397.218 100.899C430.693 72.6973 476.586 70.4386 500.955 71.5995L501 70.6996C476.496 69.5388 430.351 71.8244 396.642 100.215Z" fill="#FCFDFE"/>
</g>
</g>
<path d="M345.791 334.515C353.935 336.09 362.835 332.985 368.126 326.011L442.779 227.71C449.573 218.756 447.827 206.167 438.828 199.517C429.767 192.822 412.741 193.488 405.812 202.514L329.657 301.706C322.476 311.055 324.491 323.852 334.102 330.223C336.477 331.797 343.109 333.993 345.791 334.515Z" fill="url(#paint1_linear_111_152)"/>
<path opacity="0.3" d="M438.828 199.517C429.767 192.822 412.741 193.488 405.812 202.514L336.181 293.211C343.874 293.238 352.36 295.632 362.421 290.584C379.167 282.179 376.459 265.117 390.82 254.283C397.389 249.334 408.242 245.149 427.355 248.02L442.779 227.71C449.582 218.765 447.827 206.167 438.828 199.517Z" fill="#97A6B7"/>
<path d="M472.168 184.84C471.772 184.741 471.376 184.669 470.972 184.615L442.671 176.903L423.432 250.692L450.932 257.459C451.588 257.819 452.281 258.107 453.01 258.296C462.738 260.834 474.904 246.445 480.195 226.162C485.495 205.879 481.896 187.378 472.168 184.84Z" fill="url(#paint2_linear_111_152)"/>
<path d="M442.68 176.903C447.026 204.277 440.637 228.762 423.441 250.692L194.65 263.533L246.455 55.8623L442.68 176.903Z" fill="url(#paint3_linear_111_152)"/>
<path d="M267.503 217.514C289.559 215.138 303.381 187.647 326.939 192.74C345.422 196.736 346.304 215.93 364.715 218.683C383.568 221.5 391.801 202.531 414.154 200.92C424.313 200.182 433.933 203.314 442.716 208.47C440.16 223.48 433.753 237.527 423.432 250.692L194.641 263.533L225.461 196.466C243.117 214.04 256.813 218.665 267.503 217.514Z" fill="#01A4AA"/>
<path d="M262.968 169.884C247.553 229.032 212.062 270.984 183.698 263.596C155.335 256.199 144.851 202.261 160.266 143.113C175.681 83.9651 211.171 42.0134 239.535 49.4013C267.899 56.7982 278.391 110.736 262.968 169.884Z" fill="url(#paint4_linear_111_152)"/>
<path d="M184.652 259.96C178.632 258.394 173.377 254.327 169.022 247.866C164.594 241.297 161.31 232.613 159.258 222.04C154.939 199.822 156.586 172.133 163.91 144.057C171.226 115.982 183.312 91.0103 197.925 73.7329C204.881 65.5172 211.99 59.533 219.054 55.9606C226.001 52.4511 232.57 51.4703 238.599 53.036C244.619 54.6018 249.875 58.6692 254.23 65.1302C258.657 71.6992 261.942 80.3829 263.993 90.9563C265.802 100.243 266.567 110.492 266.306 121.327C265.946 136.4 252.421 148.71 248.165 165.042C243.638 182.41 248.471 202.495 240.822 216.407C236.107 224.973 230.905 232.685 225.335 239.272C218.379 247.488 211.27 253.472 204.206 257.044C197.241 260.545 190.672 261.526 184.652 259.96Z" fill="url(#paint5_linear_111_152)"/>
<path d="M69.1096 295.335L455.476 284.915C475.444 284.375 491.884 300.482 491.884 320.909V398.307C491.884 418.725 475.444 434.679 455.476 433.95L69.1096 419.84C55.3867 419.336 44.4083 405.488 44.4083 388.903V326.038C44.3993 309.445 55.3867 295.704 69.1096 295.335Z" fill="#97A6B7"/>
<path d="M455.476 429.099C472.735 429.693 486.962 415.835 486.962 398.207V320.963C486.962 303.325 472.735 289.341 455.476 289.764L69.1097 299.393C57.2225 299.69 47.6659 311.622 47.6659 326.002V388.974C47.6659 403.354 57.2315 415.376 69.1097 415.781L455.476 429.099Z" fill="url(#paint6_linear_111_152)"/>
<path d="M406.955 320.325L396.454 342.506C396.067 343.325 395.32 343.892 394.456 344.027L371.365 347.564C369.233 347.888 368.387 350.65 369.926 352.234L386.564 369.358C387.185 369.997 387.473 370.915 387.32 371.806L383.37 395.868C383.001 398.109 385.259 399.873 387.185 398.856L408.107 387.815C408.89 387.401 409.826 387.419 410.608 387.86L431.962 399.855C433.978 400.989 436.336 399.288 435.949 396.975L431.827 372.274C431.674 371.356 431.971 370.429 432.619 369.79L450.203 352.378C451.858 350.74 450.94 347.879 448.664 347.546L424.466 343.973C423.576 343.838 422.811 343.271 422.415 342.443L411.778 320.262C410.788 318.21 407.936 318.246 406.955 320.325Z" fill="#D8DEE8"/>
<path d="M321.882 321.359L312.145 342.722C311.785 343.514 311.092 344.054 310.292 344.189L288.857 347.591C286.877 347.905 286.094 350.56 287.516 352.09L302.958 368.584C303.534 369.196 303.794 370.078 303.66 370.942L299.988 394.123C299.646 396.282 301.743 397.983 303.534 396.993L322.944 386.348C323.672 385.952 324.536 385.961 325.265 386.384L345.062 397.911C346.925 399 349.112 397.353 348.752 395.139L344.927 371.365C344.783 370.483 345.062 369.592 345.656 368.98L361.944 352.225C363.474 350.65 362.628 347.896 360.513 347.573L338.097 344.135C337.278 344.009 336.568 343.46 336.199 342.659L326.336 321.305C325.436 319.317 322.8 319.353 321.882 321.359Z" fill="url(#paint7_linear_111_152)"/>
<path d="M242.883 321.603L233.83 342.201C233.497 342.956 232.849 343.487 232.102 343.613L212.161 346.898C210.316 347.204 209.588 349.768 210.919 351.235L225.29 367.154C225.83 367.748 226.073 368.594 225.947 369.43L222.537 391.792C222.222 393.871 224.165 395.509 225.83 394.564L243.881 384.278C244.556 383.891 245.366 383.909 246.041 384.314L264.443 395.419C266.18 396.462 268.205 394.879 267.872 392.737L264.326 369.817C264.191 368.972 264.452 368.108 265.001 367.514L280.128 351.361C281.55 349.84 280.767 347.195 278.805 346.88L257.982 343.559C257.217 343.433 256.561 342.911 256.219 342.138L247.049 321.54C246.194 319.641 243.737 319.677 242.883 321.603Z" fill="url(#paint8_linear_111_152)"/>
<path d="M169.337 322.502L160.896 342.389C160.581 343.127 159.987 343.631 159.285 343.748L140.685 346.925C138.966 347.222 138.282 349.696 139.524 351.118L152.932 366.488C153.436 367.064 153.661 367.883 153.544 368.684L150.359 390.289C150.062 392.305 151.879 393.88 153.436 392.962L170.273 383.018C170.902 382.649 171.649 382.658 172.279 383.054L189.422 393.763C191.032 394.771 192.922 393.241 192.616 391.171L189.314 369.052C189.188 368.234 189.431 367.406 189.944 366.83L204.036 351.235C205.358 349.768 204.629 347.213 202.803 346.907L183.402 343.703C182.691 343.586 182.079 343.073 181.755 342.335L173.206 322.448C172.414 320.604 170.12 320.64 169.337 322.502Z" fill="#D8DEE8"/>
<path d="M100.677 323.33L92.7851 342.56C92.4972 343.271 91.9303 343.766 91.2824 343.874L73.888 346.943C72.2772 347.231 71.6383 349.624 72.7991 351.001L85.3433 365.858C85.8112 366.416 86.0272 367.208 85.9102 367.982L82.9316 388.876C82.6527 390.82 84.3534 392.35 85.8112 391.459L101.55 381.839C102.135 381.479 102.837 381.488 103.431 381.875L119.448 392.215C120.96 393.187 122.724 391.711 122.436 389.713L119.349 368.341C119.232 367.55 119.457 366.749 119.943 366.191L133.099 351.118C134.332 349.705 133.657 347.231 131.947 346.943L113.833 343.847C113.167 343.73 112.591 343.235 112.294 342.524L104.312 323.303C103.557 321.503 101.424 321.53 100.677 323.33Z" fill="#D8DEE8"/>
<g opacity="0.1">
<path opacity="0.1" d="M126.008 363.697C175.879 350.118 209.39 418.121 267.377 403.183C317.661 390.234 319.065 334.163 378.825 294.254C382.92 291.519 387.095 288.99 391.333 286.641L455.476 284.914C475.444 284.374 491.884 300.481 491.884 320.908V398.306C491.884 418.724 475.444 434.678 455.476 433.949L71.7283 419.929C90.1755 381.757 109.694 368.133 126.008 363.697Z" fill="#97A6B7"/>
</g>
<path d="M406.955 320.324L396.454 342.505C396.067 343.324 395.32 343.891 394.456 344.026L371.365 347.563C369.233 347.887 368.387 350.649 369.926 352.233L386.564 369.357C387.185 369.996 387.473 370.914 387.32 371.805L383.37 395.867C383.001 398.108 385.259 399.872 387.185 398.855L408.107 387.814C408.89 387.4 409.826 387.418 410.608 387.859L431.962 399.854C433.978 400.988 436.336 399.287 435.949 396.974L431.827 372.273C431.674 371.355 431.971 370.428 432.619 369.789L450.203 352.377C451.858 350.739 450.94 347.878 448.664 347.545L424.466 343.972C423.576 343.837 422.811 343.27 422.415 342.442L411.778 320.261C410.788 318.209 407.936 318.245 406.955 320.324Z" fill="url(#paint9_linear_111_152)"/>
<path d="M269.969 123.325C269.465 137.885 267.188 153.695 262.968 169.884C258.522 186.954 252.403 202.594 245.258 216.029C227.657 249.144 203.874 268.86 183.699 263.596C155.344 256.199 144.851 202.261 160.266 143.113C175.69 83.9649 211.18 42.0132 239.535 49.4101C260.133 54.7732 271.309 84.6938 269.969 123.325Z" fill="url(#paint10_linear_111_152)"/>
<path d="M184.652 259.96C178.632 258.394 173.377 254.327 169.022 247.866C164.594 241.297 161.31 232.613 159.258 222.04C154.939 199.822 156.586 172.133 163.91 144.057C171.226 115.982 183.312 91.0103 197.925 73.7329C204.881 65.5172 211.99 59.533 219.054 55.9606C226.001 52.4511 232.57 51.4703 238.599 53.036C244.619 54.6018 249.875 58.6692 254.23 65.1302C258.657 71.6992 261.942 80.3829 263.993 90.9563C265.802 100.243 266.567 110.492 266.306 121.327C265.946 136.4 252.421 148.71 248.165 165.042C243.638 182.41 248.471 202.495 240.822 216.407C236.107 224.973 230.905 232.685 225.335 239.272C218.379 247.488 211.27 253.472 204.206 257.044C197.241 260.545 190.672 261.526 184.652 259.96Z" fill="url(#paint11_linear_111_152)"/>
<path d="M269.969 123.325C269.465 137.885 267.188 153.696 262.968 169.884C258.522 186.955 252.403 202.594 245.258 216.029C241.632 216.38 237.942 216.164 234.298 215.309C212.305 210.162 199.959 183.94 207.032 156.809C214.105 129.669 237.753 112.536 259.548 118.439C263.346 119.474 266.837 121.138 269.969 123.325Z" fill="url(#paint12_linear_111_152)"/>
<path opacity="0.3" d="M210.595 157.26C205.34 177.408 209.93 195.684 220.683 198.051C231.265 200.381 243.872 186.362 248.975 166.781C254.077 147.19 249.875 129.004 239.436 126.116C228.827 123.191 215.851 137.112 210.595 157.26Z" fill="#97A6B7"/>
<path d="M29.2817 485.368C29.2817 485.368 26.4292 488.185 26.3662 489.22C26.3032 490.255 26.1142 501.341 27.275 502.376C28.4359 503.411 31.8553 504.149 30.7575 505.309C29.9296 506.191 23.5406 506.002 19.3022 505.768C18.0694 505.696 16.5126 495.699 16.0267 494.232C15.3158 492.099 12.7512 487.456 13.3991 485.962C13.7141 485.233 16.0537 483.587 18.1774 482.192C20.4091 480.734 22.5507 477.477 22.5507 477.477L29.2817 485.368Z" fill="#F7A491"/>
<path d="M67.418 492.289C67.418 492.289 64.8624 499.596 64.8624 499.614C64.6734 500.774 63.9265 503.627 63.9265 504.68C63.9265 508.63 81.5099 501.323 77.5685 499.578C77.2085 499.416 76.0927 498.156 75.9757 496.806C75.7957 494.736 77.4605 492.136 77.4605 492.136L67.418 492.289Z" fill="#F7A491"/>
<path d="M96.7716 354.178C96.7716 354.178 98.0944 366.263 98.0944 366.461C98.0944 387.644 100.569 429.02 99.7771 432.997C97.8604 442.706 76.8665 495.574 76.8665 495.574L65.9872 494.017L80.556 431.575L75.1928 407.693L67.6069 360.495L96.7716 354.178Z" fill="#2D2861"/>
<path d="M55.7826 364.752L53.6589 377.161L47.9178 428.237L19.824 480.069C19.824 480.069 24.0443 486.558 28.5797 487.574L68.4527 435.184L90.0585 369.602L89.3026 355.033L55.7826 364.752Z" fill="#352E73"/>
<path d="M100.866 222.535C101.208 223.201 102.603 224.983 102.603 224.983C102.603 224.983 99.4262 258.971 99.1742 261.095L89.5187 275.718L100.344 283.663C100.344 283.663 111.367 266.008 111.466 265.144C111.565 264.28 111.115 238.841 111.115 238.841C111.115 238.841 110.306 225.64 110.306 224.983C110.306 224.326 112.249 220.07 112.636 218.36C112.996 216.776 113.095 211.881 113.095 211.881L112.285 210.72L108.533 209.901L105.878 210.207C105.878 210.207 99.7501 212.691 99.5072 213.474C99.3992 213.834 99.7141 218.54 100.074 220.187C100.191 220.781 100.587 221.978 100.866 222.535Z" fill="#F7A491"/>
<path d="M102.054 216.147C102.054 216.147 102.657 217.586 103.592 218.702C104.528 219.818 106.373 219.539 107.462 218.099C108.551 216.66 108.956 215.22 108.956 215.22L102.054 216.147Z" fill="#FE875E"/>
<path d="M66.2029 44.4883L69.9464 106.867L20.6877 145.309L81.1677 161.03L102.512 219.755L136.149 167.095L198.6 164.944L158.907 116.684L176.157 56.6185L117.99 79.457L66.2029 44.4883Z" fill="url(#paint13_linear_111_152)"/>
<path d="M75.5707 136.913C107.327 118.799 144.815 119.807 174.997 136.247L198.6 164.944L136.15 167.095L102.513 219.764L81.1679 161.03L53.578 153.858C59.958 147.37 67.292 141.638 75.5707 136.913Z" fill="url(#paint14_linear_111_152)"/>
<path d="M102.027 216.255C102.072 215.517 101.955 213.96 101.955 213.96C101.955 213.96 103.53 210.883 103.17 210.676C101.919 209.956 99.4622 213.42 99.4622 213.42C99.4622 213.42 101.892 218.666 102.027 216.255Z" fill="#F7A491"/>
<path d="M112.546 218.279C112.546 218.279 114.247 211.899 113.518 210.099C113.05 208.948 106.742 206.455 105.932 207.571C105.194 208.588 111.25 210.693 111.061 210.936C110.755 211.341 106.481 208.435 105.698 208.993C104.816 209.614 109.819 212.664 109.595 213.141C109.451 213.447 106.652 210.531 106.355 211.827C106.058 213.114 112.546 218.279 112.546 218.279Z" fill="#F7A491"/>
<path d="M96.9515 346.816L94.7468 316.617C94.0359 309.157 93.7659 303.209 94.3689 301.058C95.6557 296.487 105.041 281.126 105.041 281.126C105.041 281.126 96.0426 271.11 89.6626 271.11C89.6626 271.11 82.5896 284.725 74.1939 285.931C65.7981 287.128 67.5979 287.182 64.1784 287.542C60.174 287.965 56.3765 288.604 53.29 289.891C46.874 292.563 51.7062 316.581 52.4351 320.486C53.542 326.389 51.4723 376.143 51.4723 376.143C51.4723 376.143 69.8835 380.291 98.1033 366.469L96.9515 346.816Z" fill="url(#paint15_linear_111_152)"/>
<path d="M65.9061 274.342L63.9084 287.795C63.9084 287.795 71.2873 303.47 75.7147 302.103C79.4311 300.951 77.1005 286.598 77.1005 286.598C77.1005 286.598 75.1208 279.417 75.7327 275.647C76.3356 271.885 65.9061 274.342 65.9061 274.342Z" fill="#F7A491"/>
<path d="M67.337 278.409C69.2447 279.372 73.0062 280.677 75.9307 280.992C75.6518 279.111 75.4898 277.113 75.7328 275.646C76.0117 273.91 73.942 273.496 71.6294 273.559C68.6058 273.838 65.9062 274.342 65.9062 274.342L65.5193 276.924C66.0952 277.572 66.6981 278.085 67.337 278.409Z" fill="#FE875E"/>
<path d="M56.3136 258.818C55.9986 258.818 59.3191 273.855 64.4484 276.437C69.5776 279.02 77.2354 277.679 78.6752 273.63C80.268 269.148 74.4729 253.815 67.2469 251.871C60.03 249.918 56.3136 258.818 56.3136 258.818Z" fill="#F7A491"/>
<path d="M16.9445 307.609L21.9117 337.638L0 358.758L30.0915 363.311L43.4095 390.676L57.0335 363.464L87.1789 359.253L65.5102 337.89L70.8194 307.915L43.8054 321.926L16.9445 307.609Z" fill="url(#paint16_linear_111_152)"/>
<path d="M26.1591 351.91C40.629 341.525 58.8332 340.112 74.2929 346.546L87.179 359.253L57.0335 363.455L43.4096 390.676L30.0916 363.302L16.3596 361.223C19.1312 357.768 22.3887 354.618 26.1591 351.91Z" fill="url(#paint17_linear_111_152)"/>
<path d="M35.4545 314.718C35.4545 314.718 28.8765 323.626 28.4806 325.192C28.0756 326.758 30.9552 363.742 31.1082 367.009C31.1082 367.009 29.8934 370.95 29.2095 373.461C28.5256 375.963 28.2196 377.825 28.5616 378.32C28.9035 378.815 29.9653 378.473 30.3793 379.418C30.7932 380.363 32.008 380.219 32.386 380.408C32.7639 380.597 33.8798 382.001 34.3027 381.965C34.7166 381.929 35.4005 381.848 35.7605 382.082C36.1204 382.307 36.7233 382.937 37.5782 382.784C38.4331 382.631 38.856 382.145 38.856 382.145C38.856 382.145 38.1901 375.342 38.676 375.369C39.171 375.387 40.4218 375.954 40.5928 376.377C40.7637 376.79 40.6917 377.726 40.8537 378.14C41.0247 378.554 41.5916 378.959 42.1045 378.788C42.6174 378.617 42.5365 376.287 42.5365 376.287C42.5365 376.287 42.4645 374.388 41.7806 373.272C39.4139 369.394 38.901 369.934 38.595 369.439C38.4421 369.196 38.631 359.612 38.631 359.612C38.631 359.612 39.5759 332.4 39.6839 330.933L46.6128 320.666L35.4545 314.718Z" fill="#F8A492"/>
<path d="M32.7191 314.817L46.577 325.238C46.577 325.238 54.1449 313.818 58.2123 309.76C63.3055 304.667 56.1516 288.505 53.0831 289.954C45.5242 293.535 32.7191 314.817 32.7191 314.817Z" fill="url(#paint18_linear_111_152)"/>
<path d="M62.2527 245.005C58.1583 247.525 56.2686 251.268 55.6387 252.807C53.713 253.779 51.3823 255.894 50.2665 261.572C48.8897 268.555 53.776 273.936 58.9592 275.556C64.1424 277.175 65.0153 280.829 65.0153 280.829L65.5282 276.887C65.5282 276.887 64.3764 273.459 62.6396 271.749C60.9029 270.031 63.4585 267.538 63.6835 265.495C63.8545 263.929 62.7746 260.879 63.0086 258.296L63.6385 256.164C63.6385 256.164 65.6902 252.897 68.7227 252.492C71.7643 252.087 67.5169 241.766 62.2527 245.005Z" fill="#2D2861"/>
<path d="M64.4393 268.112C65.1142 269.849 64.8352 271.568 63.8274 271.964C62.8195 272.351 61.4607 271.262 60.7858 269.525C60.1199 267.788 60.3899 266.061 61.3977 265.674C62.4056 265.287 63.7644 266.376 64.4393 268.112Z" fill="#F7A491"/>
<path d="M18.3213 482.12C18.3213 482.12 24.8903 500.873 27.4639 501.773C28.1478 502.016 31.4233 502.619 32.0442 504.095C32.2332 504.536 32.0442 506.012 32.0442 506.012H18.3483C18.3483 506.012 16.6205 497.751 15.9276 494.124C15.9276 494.124 12.3012 485.252 12.7061 484.451C13.1111 483.65 18.3213 482.12 18.3213 482.12Z" fill="#2D2861"/>
<path d="M62.9186 505.984L64.9343 499.532C64.9343 499.532 69.1636 501.35 71.2783 501.044C73.393 500.738 77.5234 499.532 77.5234 499.532C85.9641 502.349 92.8751 503.717 91.6243 505.984H62.9186Z" fill="#2D2861"/>
<defs>
<linearGradient id="paint0_linear_111_152" x1="231.882" y1="205.671" x2="485.228" y2="205.671" gradientUnits="userSpaceOnUse">
<stop stop-color="#FF9085"/>
<stop offset="1" stop-color="#FB6FBB"/>
</linearGradient>
<linearGradient id="paint1_linear_111_152" x1="431.683" y1="276.531" x2="340.678" y2="252.804" gradientUnits="userSpaceOnUse">
<stop stop-color="#311944"/>
<stop offset="1" stop-color="#893976"/>
</linearGradient>
<linearGradient id="paint2_linear_111_152" x1="542.85" y1="216.746" x2="404.399" y2="218.224" gradientUnits="userSpaceOnUse">
<stop stop-color="#311944"/>
<stop offset="1" stop-color="#893976"/>
</linearGradient>
<linearGradient id="paint3_linear_111_152" x1="210.08" y1="159.701" x2="459.428" y2="159.701" gradientUnits="userSpaceOnUse">
<stop stop-color="#01BDAA"/>
<stop offset="1" stop-color="#01E3B2"/>
</linearGradient>
<linearGradient id="paint4_linear_111_152" x1="286.199" y1="104.102" x2="137.043" y2="208.897" gradientUnits="userSpaceOnUse">
<stop offset="0.00359712" stop-color="#E38DDD"/>
<stop offset="1" stop-color="#9571F6"/>
</linearGradient>
<linearGradient id="paint5_linear_111_152" x1="277.082" y1="171.796" x2="166.377" y2="145.926" gradientUnits="userSpaceOnUse">
<stop stop-color="#311944"/>
<stop offset="1" stop-color="#893976"/>
</linearGradient>
<linearGradient id="paint6_linear_111_152" x1="386.192" y1="535.263" x2="192.698" y2="241.646" gradientUnits="userSpaceOnUse">
<stop offset="0.00359712" stop-color="#EBEFF2"/>
<stop offset="1" stop-color="white"/>
</linearGradient>
<linearGradient id="paint7_linear_111_152" x1="322.062" y1="361.062" x2="261.03" y2="530.729" gradientUnits="userSpaceOnUse">
<stop stop-color="#FFC444"/>
<stop offset="0.9964" stop-color="#F36F56"/>
</linearGradient>
<linearGradient id="paint8_linear_111_152" x1="251.845" y1="335.805" x2="190.814" y2="505.471" gradientUnits="userSpaceOnUse">
<stop stop-color="#FFC444"/>
<stop offset="0.9964" stop-color="#F36F56"/>
</linearGradient>
<linearGradient id="paint9_linear_111_152" x1="451.044" y1="359.479" x2="369.138" y2="359.479" gradientUnits="userSpaceOnUse">
<stop stop-color="#FFC444"/>
<stop offset="0.9964" stop-color="#F36F56"/>
</linearGradient>
<linearGradient id="paint10_linear_111_152" x1="153.16" y1="156.501" x2="270.078" y2="156.501" gradientUnits="userSpaceOnUse">
<stop stop-color="#FFC444"/>
<stop offset="0.9964" stop-color="#F36F56"/>
</linearGradient>
<linearGradient id="paint11_linear_111_152" x1="502.945" y1="205.206" x2="147.912" y2="145.847" gradientUnits="userSpaceOnUse">
<stop stop-color="#311944"/>
<stop offset="1" stop-color="#893976"/>
</linearGradient>
<linearGradient id="paint12_linear_111_152" x1="228.042" y1="166.73" x2="292.975" y2="166.73" gradientUnits="userSpaceOnUse">
<stop stop-color="#FFC444"/>
<stop offset="0.9964" stop-color="#F36F56"/>
</linearGradient>
<linearGradient id="paint13_linear_111_152" x1="198.6" y1="132.123" x2="20.6868" y2="132.123" gradientUnits="userSpaceOnUse">
<stop stop-color="#FFC444"/>
<stop offset="0.9964" stop-color="#F36F56"/>
</linearGradient>
<linearGradient id="paint14_linear_111_152" x1="198.599" y1="171.691" x2="53.5768" y2="171.691" gradientUnits="userSpaceOnUse">
<stop stop-color="#FFC444"/>
<stop offset="0.9964" stop-color="#F36F56"/>
</linearGradient>
<linearGradient id="paint15_linear_111_152" x1="105.04" y1="323.918" x2="50.012" y2="323.918" gradientUnits="userSpaceOnUse">
<stop offset="0.00359712" stop-color="#6165D7"/>
<stop offset="1" stop-color="#AA80F9"/>
</linearGradient>
<linearGradient id="paint16_linear_111_152" x1="87.1826" y1="349.146" x2="0" y2="349.146" gradientUnits="userSpaceOnUse">
<stop stop-color="#FFC444"/>
<stop offset="0.9964" stop-color="#F36F56"/>
</linearGradient>
<linearGradient id="paint17_linear_111_152" x1="87.1827" y1="366.674" x2="16.3659" y2="366.674" gradientUnits="userSpaceOnUse">
<stop stop-color="#FFC444"/>
<stop offset="0.9964" stop-color="#F36F56"/>
</linearGradient>
<linearGradient id="paint18_linear_111_152" x1="59.9858" y1="307.554" x2="32.72" y2="307.554" gradientUnits="userSpaceOnUse">
<stop offset="0.00359712" stop-color="#6165D7"/>
<stop offset="1" stop-color="#AA80F9"/>
</linearGradient>
</defs>
</svg>
