<svg width="95" height="74" viewBox="0 0 95 74" fill="none" xmlns="http://www.w3.org/2000/svg">
<g opacity="0.08">
<path d="M94.5316 40.0853L71.4987 40.0853C71.8924 22.3684 76.6535 20.3573 82.6333 19.7832L84.9393 19.4815L84.9393 1.62103e-05L82.2813 0.150361C74.4727 0.614039 65.8397 2.09973 60.0801 9.6041C55.0312 16.1826 52.8053 26.9302 52.8053 43.4287L52.8053 74.0005L94.5316 74.0005L94.5316 40.0853Z" fill="white"/>
<path d="M41.7263 74.0005L41.7263 40.0853L19.0008 40.0853C19.3946 22.3684 24.0017 20.3572 29.9815 19.7832L32.134 19.4815L32.134 1.62103e-05L29.6295 0.150361C21.8209 0.614039 13.1107 2.09972 7.35101 9.6041C2.30261 16.1826 -1.73988e-06 26.9302 -4.6876e-07 43.4287L1.88662e-06 74.0005L41.7263 74.0005Z" fill="white"/>
</g>
</svg>
