<svg width="158" height="97" viewBox="0 0 158 97" fill="none" xmlns="http://www.w3.org/2000/svg">
<path d="M57.436 94.3907C56.3887 93.4145 55.2793 92.5447 54.0457 91.7282C53.0339 91.0625 52.0221 90.4945 51.0015 90.0064C50.9038 89.962 50.1761 89.6425 50.1761 89.6425C49.466 89.3319 48.756 89.0479 48.0283 88.8082C47.2472 88.5331 46.4041 88.329 45.5343 88.1426C45.0817 87.9207 44.6468 87.6544 44.2385 87.3527C44.3628 87.1397 44.274 86.7669 44.0078 86.3232C43.8391 86.0303 43.5818 85.7108 43.28 85.3824C43.0315 85.054 42.7475 84.7345 42.4546 84.4327C41.2742 83.2168 40.2624 82.8884 39.6323 83.1192C39.3216 83.2257 39.1708 83.4831 39.224 83.8825C39.2506 84.0866 39.3394 84.3173 39.4814 84.5836C39.6323 84.8321 39.8541 85.1072 40.147 85.409C41.1411 86.4208 42.712 87.4059 43.6173 87.5213C43.7681 87.6367 43.9279 87.7521 44.0876 87.8586C43.4575 87.7521 42.8096 87.6456 42.1528 87.5479C41.4872 87.4414 40.7949 87.3349 40.1115 87.2196C39.6145 87.0154 39.224 86.7847 38.9045 86.5095C38.8069 86.4208 38.7181 86.3232 38.6205 86.2344C39.011 85.7196 38.1856 84.0156 37.1738 82.6754C36.8898 82.2938 36.5969 82.0009 36.3396 81.7169C36.0822 81.424 35.8248 81.1933 35.5763 81.0246C35.0881 80.6785 34.6355 80.5631 34.2539 80.6519C33.5084 80.8294 33.3131 81.7435 34.3959 83.3943C34.671 83.8114 34.9994 84.2286 35.3544 84.628C35.7183 85.0185 36.1265 85.3202 36.5082 85.6043C37.0762 86.0036 37.6265 86.2877 38.0347 86.3675C38.2122 86.545 38.3897 86.7314 38.5761 86.8912C38.5939 86.9089 38.6205 86.9267 38.6471 86.9444C38.4696 86.9 38.2832 86.8468 38.0969 86.8024C37.8483 86.7314 37.591 86.6604 37.3425 86.5983C37.0762 86.5273 36.7922 86.4474 36.5082 86.3764C36.0023 86.2433 35.4964 86.1101 34.9905 85.9504L33.9432 85.551C33.251 85.1161 32.6652 84.6013 32.1948 84.0156C32.4611 83.8026 32.4877 83.2878 32.3457 82.6399C32.1859 81.8056 31.8221 80.714 31.3517 79.7555C30.3931 77.8917 29.4879 76.8621 28.5915 76.9154C27.7306 76.9598 27.3046 77.9183 28.13 79.9951C28.343 80.501 28.6003 81.0868 28.9287 81.5571C29.266 82.0364 29.6299 82.489 30.0026 82.8884C30.5884 83.4919 31.1564 83.9801 31.609 84.1132C31.8309 84.415 32.0794 84.699 32.3546 84.9652L31.4049 84.6013L27.8371 82.8174L27.4643 82.5778C26.8785 82.0187 26.3993 81.4063 26.0354 80.7317C26.3372 80.572 26.4525 80.0572 26.4348 79.3827C26.3904 78.5751 26.2306 77.439 25.9555 76.3829C25.6893 75.3267 25.3076 74.599 24.9437 74.0398C24.5887 73.4718 24.1716 73.1612 23.7456 73.099C22.9024 72.9837 22.3078 73.8534 22.7338 76.0634C22.8314 76.6314 23.0267 77.1905 23.2663 77.7142C23.5059 78.2467 23.7811 78.7703 24.074 79.2318C24.3668 79.6933 24.6686 80.1016 24.9615 80.3767C25.1301 80.5187 25.2899 80.6252 25.4408 80.6962C25.6094 81.0424 25.8046 81.3708 26.0265 81.6814L25.5295 81.3619C24.7662 80.927 24.0917 80.3945 23.3728 79.8353L21.6244 78.4863C21.1008 77.8118 20.7635 77.0929 20.5505 76.4006C20.8789 76.303 21.0919 75.8149 21.1984 75.1315C21.3315 74.2972 21.296 73.2233 21.2428 72.1139C21.1629 71.0222 20.9588 70.2057 20.6659 69.6199C20.3907 69.0253 20.0712 68.617 19.6541 68.4839C18.8553 68.2088 18.1098 68.9632 18.1187 71.2352C18.1808 72.3269 18.4914 73.5605 18.8908 74.5901C18.9884 74.8475 19.0949 75.0871 19.2103 75.309C19.3346 75.5131 19.4677 75.6995 19.592 75.8504C19.7251 76.0101 19.8493 76.1432 19.9825 76.2409C20.0801 76.5959 20.2044 76.9598 20.3641 77.3325C18.9796 76.0456 17.6838 74.6522 16.4856 73.17C16.4057 73.0191 16.3347 72.8683 16.2815 72.7174C16.1572 72.3535 16.0685 71.9808 15.9975 71.5991C15.9709 71.4571 15.962 71.3151 15.9442 71.1731C16.6898 71.0755 17.1868 69.0075 17.3554 67.0905C17.6305 64.9072 17.1246 63.6913 16.4413 63.2298C15.7312 62.8037 14.8082 63.4516 14.4621 65.6527C14.3378 66.7355 14.3999 68.0224 14.5952 69.1052C14.7816 69.9039 15.0833 70.5607 15.4028 70.9157C15.4295 71.1731 15.4472 71.4394 15.4916 71.6879C15.5093 71.8032 15.5537 71.9097 15.5804 72.0251C14.4532 70.5252 13.4148 68.9454 12.5095 67.3124C12.2876 66.6023 12.2521 65.8835 12.2965 65.2089C13.042 65.2622 13.9651 63.283 14.4177 61.437C15.0833 59.3335 14.8526 58.0377 14.2047 57.4786C13.8852 57.2035 13.4947 57.1857 13.0687 57.4963C12.6338 57.807 12.1723 58.4549 11.8705 59.4933C11.5599 60.5317 11.3291 61.8363 11.3735 62.9191C11.4356 63.7179 11.5954 64.419 11.835 64.8273C11.7995 65.1823 11.7817 65.5551 11.7995 65.9367C10.9741 64.3125 10.2641 62.644 9.68719 60.9577C9.59843 60.3009 9.59843 59.6797 9.68719 59.1028C9.71381 58.9696 9.76706 58.8276 9.80257 58.6856C10.5215 58.8454 11.7906 57.0703 12.5894 55.3397C12.9799 54.3811 13.3615 53.5557 13.4059 52.899C13.4858 52.2422 13.3527 51.7363 13.0598 51.4168C12.474 50.7778 11.4622 51.044 10.4061 52.9877C9.38543 54.7006 9.03042 57.2212 9.40318 58.2507C9.3233 58.5081 9.2523 58.7566 9.19905 59.014C9.1813 59.1116 9.1813 59.2181 9.16355 59.3158C9.01267 58.7921 8.86179 58.2596 8.73754 57.736L8.18727 55.4817L7.99201 54.0883C8.03639 53.2895 8.20502 52.5351 8.4979 51.8428C8.81741 51.9671 9.27005 51.7363 9.78481 51.3014C10.4593 50.76 11.2226 49.9169 11.8439 49.0471C12.1545 48.6122 12.403 48.204 12.5805 47.8312C12.758 47.4584 12.9622 47.1034 13.0509 46.7928C13.2639 46.1538 13.2373 45.639 13.0154 45.2663C12.5716 44.5296 11.5155 44.6184 10.0954 46.3402C9.74931 46.7751 9.36768 47.2721 9.10142 47.7957C8.84404 48.3193 8.62216 48.8607 8.45353 49.3755C8.20502 50.1743 8.06302 50.902 8.15177 51.3636C7.99202 51.7097 7.85001 52.0647 7.75238 52.4286L7.64588 51.6919C7.62813 51.257 7.61038 50.7867 7.58375 50.3251C7.5305 49.2246 7.47725 48.0975 7.50388 46.9792C7.70801 46.2159 8.01864 45.5059 8.44465 44.8491C8.72866 45.0355 9.23455 44.8935 9.82032 44.5474C10.1842 44.3344 10.557 44.0592 10.9652 43.7308C11.3824 43.4025 11.8084 43.0297 12.1989 42.6392C12.9888 41.8582 13.4503 41.1393 13.7609 40.518C14.0716 39.8967 14.1337 39.3642 13.9739 38.9471C13.6544 38.1306 12.5894 38.0951 10.912 39.6127C10.0333 40.3671 9.34993 41.4233 8.80854 42.3907C8.38253 43.1362 8.17839 43.8285 8.20502 44.2989C7.99201 44.6095 7.79676 44.9201 7.62813 45.2574C7.73463 43.4735 7.93876 41.6807 8.26715 39.8879C8.56003 39.1778 8.97717 38.5033 9.52743 37.882C9.78481 38.1039 10.2907 38.0507 10.9297 37.7844C11.3202 37.6247 11.7551 37.3939 12.19 37.1188C12.6426 36.8525 13.1219 36.5419 13.5657 36.2135C14.4532 35.5567 15.0301 34.9177 15.4028 34.3408C15.8022 33.7817 15.9354 33.2669 15.8377 32.832C15.6336 31.9889 14.5952 31.7848 12.7048 33.045C11.0895 34.1722 9.46531 36.2224 9.3588 37.314C9.09255 37.598 8.85291 37.8821 8.63991 38.1749C8.95054 36.7726 9.29668 35.3704 9.74044 33.9769C9.87357 33.5598 10.0067 33.1515 10.1487 32.7433C10.557 32.0865 11.0628 31.554 11.5776 31.128C11.7906 31.3942 12.3054 31.4209 12.9888 31.2522C13.8053 31.0481 14.8082 30.5955 15.8022 30.0985C16.7696 29.5837 17.453 29.0601 17.879 28.5453C18.3583 28.066 18.5713 27.5868 18.5358 27.1519C18.4648 26.2999 17.4708 25.9271 15.4117 26.859C13.6633 27.711 11.764 29.4861 11.4889 30.5511C11.2137 30.773 10.9297 31.0215 10.6635 31.2966C11.3469 29.4417 12.0835 27.7643 12.8734 26.2289C13.2728 25.7318 13.7698 25.3502 14.2313 25.0307C14.3467 24.9508 14.4709 24.8887 14.5952 24.8177C14.7727 25.1106 15.2875 25.1993 15.9709 25.1372C16.814 25.0751 17.8524 24.7822 18.9174 24.4716C19.9558 24.1432 20.7102 23.7438 21.2073 23.3178C21.7398 22.9184 22.0415 22.5101 22.077 22.0841C22.148 21.241 21.2428 20.6907 19.0594 21.2321C17.9944 21.5338 16.8761 22.1374 15.9709 22.7675C15.5093 23.0693 15.1455 23.4154 14.9058 23.7438C14.7727 23.9124 14.6751 24.0722 14.6129 24.223C14.3822 24.3473 14.1514 24.4716 13.9473 24.6224C13.8408 24.6934 13.7343 24.7822 13.6278 24.8621C13.8231 24.5248 14.0183 24.1964 14.2224 23.868L14.4621 23.4509C14.6041 23.2113 14.7372 22.9628 14.8881 22.732L15.6336 21.6758C15.8111 21.4273 15.9886 21.1788 16.1572 20.9215C16.3525 20.6463 16.5389 20.3978 16.7253 20.1316C17.2311 19.6967 17.7903 19.4215 18.2074 19.2352C18.3317 19.1819 18.4737 19.1375 18.6068 19.0843C18.7311 19.3949 19.2281 19.5813 19.9115 19.6523C20.7635 19.7499 21.8108 19.6345 22.9113 19.5369C23.9852 19.4127 24.7929 19.1819 25.352 18.8624C25.92 18.5606 26.3105 18.2411 26.417 17.824C26.6389 17.0252 25.8668 16.3063 23.6213 16.3951C22.5474 16.5105 21.3226 16.8743 20.3197 17.3181C19.5565 17.6554 18.9973 18.108 18.7399 18.5074C18.4914 18.5961 18.2429 18.676 18.0033 18.7825C17.9057 18.8269 17.7903 18.8801 17.6838 18.9334C17.7992 18.8003 17.9145 18.6671 18.0299 18.5251C18.7754 17.6287 19.4855 16.7945 20.2931 16.0756C20.728 15.6407 21.1718 15.2413 21.6155 14.8419C21.7575 14.7532 21.9084 14.6733 22.0593 14.6112C22.4143 14.478 22.7871 14.3626 23.1598 14.2828C23.3018 14.2561 23.4438 14.2384 23.5858 14.2206C23.648 14.549 24.1006 14.8242 24.7485 15.0283C25.1479 15.1525 25.6271 15.259 26.1241 15.33C26.6212 15.4011 27.1448 15.4366 27.6951 15.5076C29.8517 15.7206 31.0233 15.2324 31.4582 14.549C31.8487 13.8301 31.2185 12.9337 29.0086 12.5965C27.9436 12.4988 26.6655 12.5876 25.5916 12.8184C24.7929 13.0225 24.1538 13.3509 23.8166 13.6793C23.5592 13.7148 23.3018 13.7414 23.0444 13.8035C22.9379 13.8301 22.8314 13.8745 22.7249 13.9011C24.2958 12.6142 25.849 11.5492 27.3401 10.6883C27.5087 10.6262 27.6773 10.5729 27.8548 10.5374C28.201 10.4487 28.5826 10.4487 28.9465 10.4398C28.9553 10.4398 28.9731 10.4398 28.982 10.4398C29.124 10.4398 29.266 10.4575 29.408 10.4664C29.3902 11.2119 31.3605 12.0817 33.1711 12.5343C34.2184 12.8627 35.0526 12.987 35.7005 12.9337C36.3484 12.8805 36.7922 12.632 37.0851 12.3391C37.3602 12.0285 37.378 11.6291 37.0673 11.2031C36.7567 10.777 36.1088 10.2889 35.0793 9.98715C34.0409 9.66764 32.754 9.46351 31.6623 9.49014C30.8546 9.57001 30.1446 9.73864 29.7452 9.99603C29.4879 9.97828 29.2216 9.95165 28.9731 9.95165C28.8755 9.95165 28.769 9.96052 28.6713 9.96052C30.1446 9.1795 31.5114 8.59374 32.6652 8.15885L33.393 7.90147C33.9166 7.83934 34.4403 7.81271 34.9728 7.87484C35.097 7.89259 35.2124 7.91922 35.3367 7.94584C35.2301 8.60261 36.8366 9.72089 38.4341 10.4487C40.1914 11.1853 41.4694 11.3539 42.0641 10.8125C42.6499 10.2889 42.3658 9.37476 40.5553 8.39848C39.6411 7.86597 38.5317 7.60858 37.5555 7.49321C36.8454 7.41333 36.2064 7.4222 35.7982 7.54646C35.5497 7.47545 35.3011 7.41333 35.0438 7.37783C34.9905 7.36895 34.9373 7.37783 34.884 7.36895L34.9373 7.3512C35.3455 7.21807 35.7449 7.12932 36.091 7.04944C36.2863 7.00507 36.4727 6.96069 36.6413 6.91632L38.017 6.58793C38.372 6.73881 38.9933 6.80094 39.7743 6.86306C40.9547 6.98732 42.4368 6.95182 43.8303 6.84531C46.6348 6.83644 48.0726 6.22405 48.1348 5.4874C48.1969 4.75075 46.7768 4.16499 43.7859 4.19161C42.2948 4.27149 40.7328 4.64425 39.5613 4.99926C38.9755 5.15902 38.4962 5.44302 38.1767 5.6649C38.0436 5.76253 37.946 5.85128 37.8661 5.94004L36.4638 6.22405C36.2952 6.26842 36.1177 6.3128 35.9313 6.3483C35.5674 6.42818 35.1591 6.5258 34.7154 6.66781L33.677 7.04057C33.7657 6.96069 33.8456 6.88969 33.9344 6.80094C34.1296 6.60568 34.316 6.40155 34.5024 6.19742C34.6533 6.15304 34.8219 6.09092 35.0171 6.01991C35.3899 5.87791 35.8337 5.63828 36.3129 5.33652C36.7833 5.03476 37.2892 4.67088 37.7773 4.27149C38.2566 3.87211 38.7359 3.46384 39.2063 3.07333C40.9991 1.53791 41.2564 0.472885 40.2802 0.117875C39.792 -0.0596298 39.1086 -0.0241288 38.3099 0.251004C37.52 0.561638 36.6236 1.19178 35.7449 2.05268C34.1296 3.57922 33.322 5.6294 33.8722 6.12642C33.7746 6.23292 33.6859 6.33942 33.5793 6.44593C33.0646 6.95182 32.5321 7.34233 31.9641 7.67071C30.5884 8.2121 28.982 8.94875 27.2602 9.9339C27.3756 9.77414 27.4909 9.62327 27.5974 9.45464C27.7572 9.25051 27.9169 9.01087 28.0678 8.78899C28.5737 8.62036 29.2305 8.12335 29.9316 7.43108C30.1535 7.2092 30.3843 6.96957 30.615 6.72106C30.8547 6.4903 31.1032 6.25955 31.3428 6.01104C31.8221 5.5229 32.2924 4.99039 32.7096 4.46675C33.5438 3.41059 34.0054 2.57632 34.1207 2.03493C34.2272 1.46691 33.961 1.10303 33.3841 0.978774C32.8161 0.881146 32.0617 1.09415 31.2274 1.57342C30.8103 1.81305 30.3754 2.13256 29.9405 2.52307C29.5056 2.9047 29.0707 3.36622 28.6891 3.96086C27.2247 6.11754 26.6922 8.39848 27.4554 8.78899C27.3667 8.91325 27.2868 9.04637 27.1892 9.16175C26.772 9.79189 26.3372 10.3244 25.8579 10.777C24.3935 11.7001 22.8758 12.8006 21.367 14.123C21.4469 13.9633 21.5268 13.7946 21.5978 13.626C21.722 13.3864 21.8285 13.1201 21.9439 12.8539C22.4054 12.5787 22.9291 11.9486 23.4616 11.1321C24.1627 10.1025 24.997 8.89549 25.5916 7.66184C25.8845 7.04944 26.1153 6.5258 26.2839 6.10867C26.4437 5.68266 26.5235 5.31877 26.5147 5.02589C26.5058 4.44012 26.1774 4.14724 25.5828 4.13836C25.2899 4.13836 24.9526 4.20049 24.6065 4.36024C24.2692 4.53775 23.9142 4.79513 23.5592 5.12352C22.8492 5.78916 22.1037 6.72993 21.5356 7.97247C20.5505 10.4043 20.5061 12.7651 21.3315 12.9781C21.2694 13.1201 21.2073 13.2621 21.1363 13.3952C20.8345 14.052 20.5416 14.6555 20.1689 15.2058C20.0446 15.3212 19.9203 15.4277 19.7961 15.5519C18.9707 16.2797 18.2429 17.1406 17.4797 18.0548C17.1779 18.4186 16.8673 18.7914 16.5478 19.1553C16.5034 19.2085 16.459 19.2707 16.4146 19.3328C16.4324 19.2795 16.4412 19.2263 16.459 19.1819L16.5389 18.889C16.6099 18.6228 16.672 18.3476 16.7253 18.0548C17.1158 17.6909 17.5063 16.972 17.8702 16.0667C18.3849 14.9484 18.9263 13.5639 19.2636 12.2503C20.0357 9.71202 19.7428 8.59374 18.5624 8.82449C17.3732 9.002 16.0419 10.7415 15.3673 13.3686C14.8881 15.9247 15.3052 18.2589 16.1572 18.3121C16.1217 18.463 16.0862 18.6139 16.0507 18.7559L15.9709 19.0488C15.8289 19.5813 15.678 20.1227 15.4561 20.6552C15.3141 20.8593 15.181 21.0546 15.039 21.2587L14.2846 22.3326C14.1248 22.59 13.9739 22.8385 13.8319 23.0959L13.6012 23.4953C13.2195 24.1077 12.8468 24.7556 12.4829 25.4301C12.5273 25.0041 12.545 24.5781 12.5539 24.1343C12.8734 23.7083 13.1397 22.9273 13.3349 21.9687C13.6544 20.7883 13.9029 19.3239 13.9828 17.9749C14.2757 15.3567 13.7343 14.3094 12.6426 14.762C11.5244 15.1703 10.5392 17.0785 10.3972 19.7765C10.3795 22.3237 11.2049 24.5514 12.048 24.4804C12.0214 25.3236 11.9237 26.1223 11.7462 26.9034C10.983 28.5009 10.273 30.2493 9.60731 32.1664C9.58956 31.7138 9.54518 31.2522 9.47418 30.7907C9.72269 30.3203 9.85582 29.5038 9.90019 28.5364C10.0244 27.3205 10.0156 25.8295 9.86469 24.4982C9.70494 21.8889 8.95942 20.9481 7.98314 21.5782C7.52163 21.8977 7.02461 22.5012 6.80273 23.4243C6.5631 24.3384 6.48322 25.51 6.64298 26.8412C7.02461 29.3263 8.20502 31.3942 9.02154 31.2079C9.12805 32.0688 9.1458 32.9119 9.0748 33.7551C8.51565 35.539 8.07189 37.3318 7.72576 39.1157C7.64588 38.6808 7.53938 38.2459 7.40625 37.8199C7.58375 37.3229 7.58375 36.4975 7.51275 35.5301C7.46838 34.3142 7.21987 32.8498 6.87373 31.5629C6.31459 29.0246 5.41819 28.2169 4.56617 28.9802C4.14903 29.3618 3.79402 30.0363 3.69639 30.9594C3.60764 31.8913 3.70527 33.0539 4.06028 34.332C4.78805 36.7105 6.26134 38.5921 7.03349 38.2992C7.25537 39.1335 7.39737 39.9766 7.44175 40.8375C7.19324 42.4173 7.00686 43.9882 6.92698 45.5591C6.90036 45.7988 6.89148 46.0384 6.87373 46.278C6.82048 46.136 6.77611 45.994 6.72285 45.852C6.62523 45.5946 6.50097 45.3373 6.37672 45.071C6.46547 44.5474 6.33234 43.7308 6.13709 42.7989C5.91521 41.6008 5.44482 40.1807 4.9478 38.956C4.02478 36.5241 3.013 35.8674 2.28523 36.7371C1.93022 37.1632 1.69059 37.8821 1.69946 38.8051C1.74384 39.737 2.00122 40.8641 2.54261 42.08C2.79999 42.6836 3.13725 43.2693 3.51889 43.7752C3.88278 44.2811 4.26441 44.716 4.61942 45.0355C5.22294 45.5769 5.75545 45.8076 6.08384 45.6035C6.14596 45.7455 6.20809 45.8875 6.27022 46.0295C6.50985 46.6242 6.67848 47.2632 6.84711 47.9998C6.85598 48.7809 6.89148 49.553 6.93586 50.3163C6.96249 50.7778 6.98024 51.2482 6.99799 51.7097L7.25537 53.5646C7.16662 53.4137 7.09561 53.254 7.00686 53.112C6.85598 52.8635 6.67848 52.6238 6.50097 52.3931C6.4921 52.2067 6.46547 52.0026 6.40335 51.7629C6.30572 51.3192 6.16371 50.7867 5.93296 50.2098C5.71108 49.6329 5.41819 49.0116 5.09868 48.3903C4.93893 48.0797 4.76143 47.7691 4.5928 47.4673C4.44192 47.1656 4.29104 46.8638 4.13128 46.5798C2.85325 44.2811 1.75272 43.7486 1.15807 44.7515C0.865191 45.2396 0.749813 46.0118 0.882942 46.9437C0.99832 47.8845 1.53083 48.9939 2.26748 50.1299C2.64912 50.6979 3.05738 51.2215 3.47451 51.6564C3.88278 52.0913 4.37091 52.4463 4.77918 52.7037C5.47144 53.1297 6.03946 53.254 6.32347 53.0055C6.41222 53.1297 6.50985 53.254 6.58973 53.3871C6.96249 53.9551 7.25537 54.5764 7.495 55.2243L7.54825 55.5704L8.10739 57.8602C8.32927 58.7655 8.58666 59.6708 8.87066 60.5672C8.56891 60.2299 8.2494 59.9104 7.93876 59.6087C7.85001 59.085 7.5305 58.3484 7.00686 57.5585C6.6696 57.0348 6.27022 56.4757 5.82645 55.9254C5.44482 55.3663 5.01881 54.8071 4.5928 54.3013C2.87987 52.2777 1.69946 51.9404 1.30895 53.0232C1.1137 53.5557 1.15807 54.3368 1.46871 55.2332C1.62846 55.6858 1.84147 56.1651 2.14323 56.6532C2.48049 57.1413 2.88875 57.6384 3.37689 58.1265C4.34429 59.1028 5.40932 59.866 6.27909 60.2122C7.02461 60.5139 7.61038 60.5406 7.84114 60.2477C8.40915 60.8068 8.95054 61.4281 9.3943 62.1558C10.0422 63.9043 10.8232 65.6083 11.7196 67.2591C11.5954 67.1615 11.4622 67.0639 11.3291 66.9662C11.0895 66.7887 10.8676 66.629 10.6546 66.4781C10.273 65.3154 8.15177 63.3718 6.3856 61.8363C4.27329 60.1678 3.17276 60.0169 2.9065 61.1796C2.81775 61.7387 3.013 62.4842 3.49226 63.3096C3.99815 64.1262 4.68155 65.0581 5.86196 65.8213C7.98314 67.2857 10.2641 67.8538 10.6546 67.0816C10.7788 67.1704 10.9031 67.2591 11.0362 67.3567C11.5954 67.7473 12.0746 68.1644 12.4918 68.6082C13.468 70.2501 14.5597 71.821 15.7579 73.3209C15.607 73.241 15.4472 73.1523 15.3052 73.0813C15.0656 72.9482 14.8082 72.8239 14.5419 72.7085C14.2846 72.2381 13.681 71.6879 12.8912 71.1287C11.8794 70.401 10.7078 69.5312 9.50081 68.9188C8.2849 68.3064 7.47725 67.9603 6.89148 67.9691C6.31459 67.9691 6.00396 68.2975 5.98621 68.8744C5.94183 69.469 6.28797 70.1613 6.91811 70.8802C7.55713 71.5902 8.45353 72.3535 9.68719 72.9393C12.048 73.9865 14.4088 74.1374 14.6662 73.312C14.8082 73.383 14.9413 73.4452 15.0745 73.5162C15.6425 73.8179 16.2194 74.1197 16.7519 74.5102C17.95 75.8947 19.237 77.2171 20.6215 78.4331L20.7457 78.5484C20.3286 78.4064 19.9115 78.2733 19.4855 78.1668C19.1482 77.7585 18.4471 77.3236 17.5507 76.9065C16.4856 76.303 15.11 75.7261 13.8231 75.3267C11.338 74.4481 10.2108 74.7232 10.3795 75.8859C10.5037 77.0663 12.1456 78.4597 14.7283 79.2407C17.2045 79.8708 19.5742 79.5691 19.6985 78.7348C20.5061 78.9567 21.3049 79.2585 22.0948 79.6401L22.9823 80.3324C23.6835 80.8826 24.4112 81.4506 25.2011 81.9121L26.63 82.8085C26.4614 82.7819 26.3017 82.7375 26.133 82.7109C25.8579 82.6754 25.5739 82.6577 25.281 82.6399C25.1301 82.5245 24.9437 82.4092 24.7219 82.3027C24.3047 82.1074 23.7545 81.9565 23.1864 81.7346C22.0238 81.3441 20.5505 81.0424 19.2192 80.8649C16.6454 80.4034 15.5448 80.9092 15.9442 82.0098C16.1484 82.5423 16.6454 83.1458 17.4797 83.6073C18.3317 84.0422 19.4766 84.3972 20.8256 84.5392C22.148 84.7167 23.5326 84.4682 24.4201 84.1753C25.1834 83.9091 25.6449 83.5452 25.6183 83.1636C25.778 83.1724 25.9289 83.1902 26.0798 83.2079C26.772 83.2967 27.4466 83.4653 28.1033 83.6517L31.1653 85.1782L33.1267 85.9238C32.967 85.9326 32.8161 85.9326 32.6563 85.9504C32.3634 85.9681 32.0794 86.0036 31.7954 86.048C31.325 85.8084 30.5174 85.6664 29.5855 85.5066C28.9731 85.4268 28.2897 85.3824 27.5886 85.3646C27.2424 85.3557 26.8874 85.3557 26.5324 85.3646C26.1863 85.3557 25.8579 85.3469 25.5295 85.3558C22.9024 85.3824 21.8995 86.0835 22.4942 87.0864C22.7871 87.5834 23.4083 88.0449 24.2958 88.3822C25.1834 88.7106 26.4082 88.7993 27.7572 88.6928C28.4406 88.6307 29.0885 88.5242 29.6742 88.3645C30.2689 88.1781 30.8014 87.9473 31.2185 87.7077C31.9197 87.3083 32.3013 86.8645 32.2214 86.5006C32.3812 86.4829 32.5321 86.4563 32.683 86.4474C33.2687 86.3941 33.89 86.4208 34.6444 86.5095L34.7864 86.5628C35.3278 86.7225 35.8425 86.8645 36.3484 86.9977C36.6324 87.0687 36.9076 87.1486 37.1827 87.2196C37.4401 87.2817 37.6886 87.3527 37.9282 87.4237C38.4519 87.5746 38.9844 87.7254 39.5346 87.7876C39.5524 87.7876 39.5613 87.7876 39.579 87.7964C39.2063 87.8852 38.8512 87.9828 38.5051 88.0982C38.0614 87.9473 37.378 87.9029 36.5703 87.9651C35.4787 88.0449 34.1562 88.3023 33.0468 88.4976C30.7836 88.9768 30.047 89.7579 30.7215 90.5211C31.3783 91.2489 33.1533 91.7726 35.4875 91.027C36.6413 90.6898 37.6708 90.1839 38.3187 89.6691C38.8512 89.2253 39.1175 88.7905 39.011 88.4798C39.7388 88.2668 40.5109 88.1071 41.3186 88.0805C41.5671 88.116 41.8245 88.1692 42.073 88.2047C43.0759 88.3556 44.0433 88.5153 44.9752 88.6928C44.9397 88.7017 44.9042 88.7017 44.8687 88.7106C44.6202 88.7727 44.3805 88.8615 44.1586 88.9502C43.7859 88.8792 43.2445 88.9147 42.6143 89.0301C41.7091 89.1899 40.6352 89.5182 39.7033 89.9088C37.8483 90.7164 37.3691 91.4087 38.017 91.9944C38.6649 92.5092 40.2269 92.5624 42.073 91.7637C42.57 91.5684 42.8984 91.3199 43.2267 91.0714C43.5551 90.814 43.8569 90.5566 44.1054 90.2993C44.4782 89.9088 44.7 89.5537 44.6468 89.2964C44.7533 89.2609 44.8598 89.2254 44.9752 89.1899C45.4544 89.0834 46.0136 89.0035 46.6082 89.0567C47.0253 89.1632 47.4247 89.2786 47.8152 89.4206C48.33 89.5892 48.8448 89.7756 49.3507 89.9886C49.3507 89.9886 50.0696 90.3081 50.1761 90.3525C51.3476 90.885 52.5103 91.5063 53.6729 92.2696C54.8711 93.0595 55.9538 93.9115 56.9745 94.8611C57.6668 95.509 58.0129 95.8995 58.0129 95.9084C58.075 95.9883 58.1727 96.0238 58.2614 96.0238C58.3413 96.0238 58.4212 95.9972 58.4833 95.9439C58.6253 95.8197 58.6342 95.6155 58.5188 95.4735C58.5099 95.4735 58.1638 95.0653 57.436 94.3907Z" fill="#000D0C"/>
<path d="M151.185 55.5794L151.239 55.2333C151.487 54.5765 151.771 53.9641 152.144 53.3961C152.224 53.2629 152.321 53.1387 152.41 53.0144C152.694 53.2629 153.262 53.1387 153.954 52.7127C154.354 52.4553 154.842 52.1092 155.259 51.6654C155.676 51.2305 156.093 50.7069 156.466 50.1389C157.203 49.0028 157.726 47.8934 157.851 46.9526C157.975 46.0119 157.868 45.2486 157.576 44.7605C156.981 43.7664 155.889 44.2989 154.602 46.5888C154.443 46.8728 154.283 47.1745 154.141 47.4763C153.972 47.778 153.795 48.0887 153.635 48.3993C153.307 49.0206 153.022 49.6418 152.801 50.2187C152.57 50.7956 152.428 51.3281 152.33 51.7719C152.268 52.0115 152.233 52.2157 152.233 52.402C152.055 52.6328 151.886 52.8724 151.727 53.1209C151.629 53.2629 151.558 53.4227 151.478 53.5736L151.736 51.7187C151.753 51.2571 151.78 50.7868 151.798 50.3252C151.833 49.562 151.878 48.7809 151.886 48.0088C152.055 47.281 152.224 46.642 152.463 46.0385C152.517 45.8965 152.579 45.7545 152.65 45.6125C152.978 45.8166 153.511 45.5859 154.114 45.0445C154.469 44.725 154.842 44.2989 155.206 43.7842C155.579 43.2694 155.925 42.6837 156.182 42.089C156.723 40.8731 156.981 39.7371 157.025 38.814C157.034 37.891 156.794 37.1721 156.439 36.7461C155.712 35.8763 154.7 36.5331 153.777 38.9649C153.28 40.1808 152.809 41.6009 152.588 42.8079C152.392 43.7398 152.259 44.5563 152.348 45.08C152.224 45.3462 152.099 45.6036 152.002 45.861C151.949 46.003 151.895 46.145 151.851 46.287C151.833 46.0474 151.824 45.8077 151.798 45.5681C151.718 44.0061 151.531 42.4263 151.283 40.8465C151.336 39.9856 151.469 39.1424 151.691 38.3082C152.463 38.6099 153.946 36.7284 154.664 34.3409C155.028 33.054 155.126 31.8913 155.028 30.9683C154.931 30.0364 154.567 29.3619 154.159 28.9891C153.307 28.2259 152.401 29.0335 151.851 31.5718C151.505 32.8588 151.256 34.3232 151.203 35.548C151.123 36.5154 151.132 37.3319 151.31 37.8378C151.176 38.2638 151.079 38.6987 150.99 39.1336C150.644 37.3408 150.2 35.548 149.641 33.7729C149.57 32.9298 149.588 32.0866 149.694 31.2257C150.511 31.4121 151.682 29.3442 152.073 26.8591C152.233 25.5278 152.144 24.3563 151.913 23.4421C151.7 22.5191 151.203 21.9067 150.733 21.5961C149.756 20.9659 149.011 21.9067 148.851 24.516C148.7 25.8473 148.691 27.3383 148.816 28.5543C148.86 29.5305 148.993 30.3382 149.242 30.8086C149.171 31.2701 149.126 31.7227 149.109 32.1842C148.443 30.2583 147.733 28.5099 146.97 26.9212C146.792 26.1402 146.686 25.3325 146.668 24.4983C147.511 24.5693 148.336 22.3416 148.319 19.7944C148.168 17.0963 147.191 15.1881 146.073 14.7799C144.982 14.3272 144.44 15.3745 144.733 17.9927C144.813 19.3417 145.061 20.8062 145.381 21.9866C145.576 22.9451 145.834 23.7261 146.162 24.1521C146.162 24.5959 146.189 25.0219 146.233 25.4479C145.869 24.7734 145.505 24.1255 145.115 23.5131L144.848 23.0871C144.706 22.8297 144.556 22.5812 144.396 22.3238L143.641 21.2499C143.499 21.0547 143.357 20.8505 143.224 20.6464C143.011 20.1228 142.86 19.5725 142.709 19.04L142.63 18.7471C142.594 18.6051 142.559 18.4542 142.523 18.3033C143.375 18.2501 143.792 15.9159 143.313 13.3598C142.638 10.7416 141.307 8.99321 140.118 8.81571C138.937 8.58495 138.645 9.70323 139.417 12.2416C139.754 13.564 140.295 14.9396 140.81 16.0579C141.174 16.9632 141.565 17.6821 141.955 18.046C142.008 18.33 142.07 18.614 142.141 18.8802L142.221 19.1731C142.239 19.2264 142.248 19.2796 142.266 19.324C142.221 19.2707 142.177 19.2086 142.133 19.1465C141.813 18.7826 141.502 18.4187 141.201 18.046C140.437 17.1318 139.719 16.2709 138.884 15.5431C138.76 15.4189 138.636 15.3124 138.511 15.197C138.139 14.6467 137.855 14.0432 137.544 13.3865C137.482 13.2533 137.42 13.1113 137.349 12.9693C138.183 12.7563 138.139 10.3866 137.145 7.96368C136.577 6.71227 135.831 5.78037 135.121 5.11473C134.766 4.78634 134.411 4.52896 134.074 4.35145C133.728 4.1917 133.39 4.12957 133.098 4.12957C132.503 4.12957 132.175 4.43133 132.166 5.0171C132.166 5.30998 132.237 5.66499 132.396 6.09988C132.565 6.51702 132.796 7.03178 133.089 7.65305C133.683 8.88671 134.518 10.0937 135.219 11.1233C135.751 11.9398 136.284 12.5611 136.736 12.8451C136.843 13.1113 136.958 13.3776 137.083 13.6172C137.162 13.7858 137.242 13.9545 137.313 14.1142C135.805 12.7918 134.287 11.6913 132.822 10.7683C132.343 10.3156 131.908 9.78311 131.491 9.15296C131.402 9.03759 131.314 8.90446 131.225 8.7802C131.988 8.38082 131.456 6.09988 129.991 3.95207C129.61 3.34855 129.175 2.89591 128.74 2.51428C128.305 2.12377 127.87 1.81313 127.453 1.56463C126.619 1.07649 125.864 0.872357 125.296 0.969985C124.719 1.10311 124.453 1.45812 124.56 2.02614C124.666 2.56753 125.136 3.4018 125.971 4.45796C126.388 4.9816 126.858 5.51411 127.338 6.00225C127.577 6.25076 127.826 6.48151 128.065 6.71227C128.296 6.96965 128.527 7.20041 128.749 7.42229C129.45 8.11456 130.098 8.61157 130.612 8.7802C130.772 9.01096 130.923 9.24172 131.083 9.44585C131.198 9.61448 131.305 9.77423 131.42 9.92511C129.689 8.93996 128.092 8.20331 126.716 7.66192C126.157 7.33354 125.625 6.94303 125.101 6.43714C124.994 6.33064 124.906 6.22413 124.808 6.11763C125.358 5.62062 124.542 3.57043 122.935 2.04389C122.066 1.18299 121.169 0.543973 120.37 0.242215C119.572 -0.0329179 118.879 -0.0684189 118.4 0.109086C117.424 0.464096 117.681 1.52913 119.474 3.06454C119.944 3.45505 120.424 3.86332 120.903 4.2627C121.4 4.66209 121.897 5.02597 122.367 5.32773C122.838 5.62949 123.282 5.86912 123.672 6.01113C123.858 6.08213 124.036 6.14426 124.187 6.18863C124.364 6.39276 124.551 6.58802 124.755 6.79215C124.844 6.87203 124.923 6.9519 125.012 7.03178L124 6.66789C123.557 6.52589 123.14 6.42826 122.785 6.34839C122.598 6.30401 122.421 6.26851 122.252 6.22413L120.867 5.89575C120.788 5.807 120.69 5.71824 120.557 5.62062C120.228 5.39873 119.758 5.11473 119.172 4.95497C118.001 4.59996 116.43 4.2272 114.948 4.14732C111.957 4.1207 110.537 4.71534 110.599 5.44311C110.661 6.17976 112.099 6.78327 114.903 6.80102C116.297 6.90753 117.788 6.9519 118.959 6.81877C119.74 6.75665 120.362 6.69452 120.717 6.54364L122.092 6.87203C122.261 6.9164 122.447 6.96078 122.643 7.00515C122.989 7.08503 123.388 7.17378 123.796 7.30691L123.85 7.32466C123.796 7.33354 123.743 7.32466 123.69 7.33354C123.432 7.36904 123.184 7.43117 122.935 7.50217C122.527 7.37791 121.897 7.36904 121.178 7.44892C120.193 7.5643 119.092 7.82168 118.178 8.35419C116.368 9.32159 116.084 10.2446 116.669 10.7683C117.264 11.3096 118.542 11.141 120.299 10.4044C121.888 9.6766 123.503 8.55832 123.397 7.90156C123.521 7.87493 123.637 7.8483 123.761 7.83055C124.293 7.76843 124.817 7.79505 125.341 7.85718L126.068 8.11456C127.231 8.54945 128.589 9.14409 130.062 9.91624C129.965 9.91624 129.858 9.90736 129.76 9.90736C129.503 9.90736 129.246 9.93399 128.988 9.95174C128.589 9.70323 127.888 9.52573 127.071 9.44585C125.98 9.41922 124.693 9.62335 123.654 9.94286C122.625 10.2357 121.977 10.7328 121.666 11.1588C121.356 11.5848 121.373 11.9842 121.648 12.2948C121.932 12.5788 122.385 12.8362 123.033 12.8894C123.681 12.9427 124.515 12.8273 125.562 12.4901C127.373 12.0374 129.343 11.1676 129.326 10.4221C129.468 10.4132 129.61 10.3955 129.752 10.3955C129.76 10.3955 129.778 10.3955 129.787 10.3955C130.151 10.4044 130.533 10.4132 130.879 10.4931C131.047 10.5375 131.216 10.5908 131.394 10.644C132.876 11.5049 134.438 12.5699 136.009 13.8568C135.902 13.8302 135.796 13.7858 135.689 13.7592C135.441 13.706 135.174 13.6705 134.917 13.635C134.58 13.3066 133.941 12.9693 133.142 12.7741C132.068 12.5433 130.79 12.4457 129.725 12.5522C127.515 12.8894 126.885 13.7947 127.275 14.5047C127.719 15.1881 128.891 15.6763 131.039 15.4633C131.589 15.3923 132.112 15.3568 132.609 15.2858C133.106 15.2148 133.586 15.1083 133.985 14.984C134.642 14.7799 135.094 14.5047 135.148 14.1764C135.29 14.203 135.432 14.2119 135.574 14.2385C135.947 14.3184 136.319 14.4337 136.674 14.5669C136.825 14.629 136.976 14.7177 137.118 14.7976C137.562 15.197 138.006 15.5964 138.44 16.0313C139.248 16.7413 139.949 17.5844 140.704 18.4809C140.819 18.614 140.934 18.7471 141.05 18.8891C140.943 18.8359 140.828 18.7826 140.73 18.7382C140.491 18.6317 140.242 18.5519 139.994 18.4631C139.736 18.0637 139.177 17.6111 138.414 17.2738C137.411 16.8301 136.186 16.4662 135.112 16.3508C132.858 16.262 132.086 16.9809 132.317 17.7797C132.423 18.1968 132.814 18.5075 133.382 18.8181C133.941 19.1376 134.748 19.3684 135.822 19.4926C136.932 19.5903 137.97 19.7056 138.822 19.608C139.505 19.537 140.003 19.3595 140.127 19.04C140.26 19.0932 140.402 19.1287 140.526 19.1909C140.943 19.3773 141.502 19.6613 142.008 20.0873C142.195 20.3447 142.39 20.5932 142.576 20.8772C142.754 21.1257 142.922 21.3831 143.1 21.6316L143.845 22.6877C143.996 22.9185 144.129 23.167 144.271 23.4066L144.511 23.8237C144.715 24.1433 144.911 24.4805 145.106 24.8178C144.999 24.7379 144.884 24.658 144.786 24.5781C144.573 24.4361 144.343 24.3119 144.121 24.1788C144.058 24.0279 143.952 23.8681 143.828 23.6995C143.588 23.3711 143.233 23.025 142.763 22.7232C141.857 22.102 140.739 21.4984 139.674 21.1878C137.482 20.6464 136.586 21.1967 136.657 22.0398C136.692 22.4658 136.994 22.883 137.526 23.2735C138.023 23.6995 138.778 24.09 139.816 24.4273C140.881 24.7379 141.92 25.0308 142.763 25.0929C143.446 25.1462 143.97 25.0574 144.138 24.7734C144.254 24.8444 144.387 24.9065 144.502 24.9864C144.964 25.3059 145.461 25.6964 145.86 26.1846C146.65 27.7111 147.387 29.3974 148.07 31.2523C147.795 30.9772 147.52 30.7287 147.245 30.5068C146.97 29.4418 145.07 27.6667 143.322 26.8147C141.263 25.8828 140.269 26.2556 140.198 27.1076C140.162 27.5425 140.375 28.0217 140.855 28.501C141.281 29.0158 141.964 29.5394 142.931 30.0542C143.925 30.5512 144.928 31.0038 145.745 31.208C146.419 31.3766 146.943 31.3588 147.156 31.0837C147.671 31.5097 148.177 32.0422 148.585 32.699C148.718 33.1073 148.86 33.5155 148.993 33.9327C149.437 35.3261 149.783 36.7284 150.094 38.1306C149.881 37.8378 149.641 37.5449 149.375 37.2697C149.268 36.1781 147.644 34.1279 146.029 33.0008C144.147 31.7493 143.1 31.9446 142.896 32.7878C142.798 33.2138 142.931 33.7285 143.331 34.2965C143.703 34.8734 144.28 35.5125 145.168 36.1692C145.603 36.4976 146.082 36.8082 146.544 37.0745C146.978 37.3496 147.413 37.5804 147.804 37.7401C148.443 37.9975 148.949 38.0596 149.206 37.8378C149.756 38.4679 150.182 39.1336 150.466 39.8436C150.795 41.6364 150.999 43.4292 151.105 45.2131C150.937 44.8847 150.742 44.5652 150.529 44.2546C150.555 43.7842 150.351 43.0919 149.925 42.3464C149.384 41.379 148.7 40.3228 147.822 39.5684C146.144 38.0508 145.079 38.0863 144.76 38.9028C144.6 39.3199 144.662 39.8524 144.973 40.4737C145.283 41.095 145.745 41.8139 146.535 42.5949C146.925 42.9854 147.351 43.3582 147.768 43.6866C148.177 44.0149 148.549 44.2901 148.913 44.5031C149.499 44.8492 150.005 44.9912 150.289 44.8048C150.706 45.4616 151.026 46.1716 151.23 46.9349C151.265 48.0532 151.212 49.1803 151.15 50.2809C151.123 50.7513 151.105 51.2128 151.088 51.6477L150.981 52.3843C150.875 52.0115 150.742 51.6565 150.582 51.3193C150.662 50.8578 150.529 50.13 150.28 49.3312C150.111 48.8164 149.89 48.2662 149.632 47.7514C149.366 47.2278 148.984 46.7308 148.638 46.2959C147.218 44.5741 146.162 44.4853 145.718 45.222C145.496 45.5947 145.47 46.1095 145.683 46.7485C145.78 47.068 145.976 47.4142 146.153 47.7869C146.339 48.1597 146.579 48.5679 146.89 49.0028C147.511 49.8726 148.283 50.7158 148.949 51.2571C149.464 51.692 149.925 51.9228 150.236 51.7985C150.529 52.4997 150.697 53.2452 150.742 54.044L150.546 55.4374L149.996 57.6917C149.872 58.2242 149.721 58.7478 149.57 59.2715C149.561 59.1739 149.552 59.0674 149.535 58.9697C149.481 58.7123 149.401 58.4638 149.33 58.2065C149.703 57.1769 149.348 54.6564 148.327 52.9434C147.28 51.0086 146.26 50.7335 145.674 51.3725C145.381 51.7009 145.248 52.1979 145.328 52.8547C145.381 53.5115 145.754 54.3369 146.144 55.2954C146.943 57.0261 148.212 58.8011 148.931 58.6413C148.967 58.7745 149.011 58.9165 149.046 59.0585C149.135 59.6354 149.135 60.2566 149.046 60.9134C148.461 62.5997 147.759 64.2683 146.934 65.8924C146.952 65.5108 146.934 65.138 146.899 64.783C147.138 64.3748 147.289 63.6736 147.36 62.8748C147.413 61.7921 147.183 60.4874 146.863 59.449C146.561 58.4106 146.1 57.7627 145.665 57.4521C145.239 57.1414 144.84 57.1592 144.529 57.4343C143.881 57.9935 143.65 59.2892 144.316 61.3927C144.769 63.2387 145.692 65.2179 146.437 65.1647C146.481 65.8392 146.446 66.5492 146.224 67.2681C145.31 68.9011 144.28 70.4809 143.153 71.9808C143.18 71.8655 143.215 71.759 143.242 71.6436C143.286 71.3862 143.313 71.1288 143.331 70.8714C143.65 70.5253 143.952 69.8685 144.138 69.0609C144.343 67.9781 144.396 66.6823 144.271 65.6084C143.934 63.4074 143.002 62.7595 142.292 63.1855C141.609 63.647 141.103 64.8629 141.378 67.0462C141.547 68.9721 142.044 71.0312 142.789 71.1288C142.772 71.2708 142.763 71.4217 142.736 71.5548C142.665 71.9365 142.567 72.3181 142.452 72.6731C142.399 72.824 142.328 72.9749 142.248 73.1257C141.05 74.6079 139.754 76.0013 138.369 77.2882C138.529 76.9155 138.653 76.5516 138.751 76.1966C138.875 76.099 139.008 75.9658 139.142 75.8061C139.266 75.6463 139.399 75.4688 139.523 75.2647C139.63 75.0428 139.736 74.8032 139.843 74.5458C140.242 73.5163 140.553 72.2826 140.615 71.1909C140.624 68.9278 139.878 68.1734 139.079 68.4396C138.671 68.5727 138.352 68.981 138.068 69.5757C137.766 70.1614 137.571 70.9868 137.491 72.0696C137.438 73.179 137.402 74.2529 137.535 75.0872C137.642 75.7706 137.855 76.2587 138.183 76.3563C137.961 77.0397 137.633 77.7675 137.109 78.442L135.361 79.7911C134.642 80.3502 133.967 80.8827 133.204 81.3176L132.707 81.6371C132.929 81.3176 133.115 80.9892 133.293 80.652C133.444 80.581 133.603 80.4745 133.772 80.3325C134.065 80.0573 134.367 79.6402 134.66 79.1875C134.952 78.726 135.228 78.2024 135.467 77.6699C135.716 77.1462 135.902 76.5871 136 76.0191C136.426 73.8092 135.831 72.9394 134.988 73.0548C134.562 73.1169 134.145 73.4275 133.79 73.9955C133.426 74.5547 133.044 75.2824 132.778 76.3386C132.503 77.3859 132.343 78.5308 132.299 79.3384C132.281 80.0218 132.396 80.5277 132.698 80.6875C132.325 81.362 131.855 81.9833 131.269 82.5335L130.897 82.7731L127.329 84.5571L126.379 84.921C126.654 84.6547 126.903 84.3707 127.125 84.0689C127.577 83.9358 128.145 83.4477 128.731 82.8442C129.104 82.4536 129.476 81.9921 129.805 81.5129C130.142 81.0425 130.391 80.4567 130.604 79.9508C131.429 77.874 131.003 76.9155 130.142 76.8711C129.255 76.809 128.34 77.8474 127.382 79.7112C126.92 80.6697 126.557 81.7614 126.388 82.5956C126.246 83.2524 126.273 83.7583 126.539 83.9713C126.068 84.5571 125.483 85.0718 124.79 85.5067L123.743 85.9061C123.237 86.057 122.722 86.1901 122.225 86.3321C121.941 86.412 121.657 86.483 121.391 86.554C121.134 86.6161 120.885 86.6871 120.637 86.7581C120.45 86.8114 120.273 86.8558 120.086 86.9001C120.104 86.8824 120.131 86.8646 120.157 86.8469C120.344 86.6871 120.521 86.5096 120.699 86.3232C121.107 86.2434 121.648 85.9594 122.225 85.56C122.616 85.276 123.024 84.9742 123.379 84.5837C123.734 84.1843 124.063 83.7583 124.338 83.35C125.42 81.6992 125.225 80.7851 124.48 80.6076C124.098 80.5188 123.645 80.6342 123.157 80.9804C122.909 81.149 122.66 81.3797 122.394 81.6726C122.128 81.9566 121.844 82.2495 121.56 82.6311C120.548 83.9713 119.723 85.6754 120.113 86.1901C120.015 86.2789 119.927 86.3765 119.829 86.4653C119.51 86.7404 119.119 86.9711 118.622 87.1753C117.939 87.2906 117.246 87.406 116.581 87.5037C115.924 87.6102 115.276 87.7078 114.646 87.8143C114.806 87.7078 114.957 87.5924 115.116 87.477C116.022 87.3617 117.593 86.3765 118.587 85.3647C118.879 85.063 119.101 84.7967 119.252 84.5393C119.403 84.2731 119.483 84.0334 119.51 83.8382C119.572 83.4388 119.412 83.1814 119.101 83.0749C118.471 82.8441 117.459 83.1725 116.279 84.3884C115.986 84.6902 115.702 85.0186 115.454 85.3381C115.152 85.6665 114.903 85.986 114.726 86.2789C114.46 86.7226 114.371 87.0954 114.495 87.3084C114.087 87.6102 113.652 87.8675 113.199 88.0983C112.329 88.2758 111.495 88.4888 110.705 88.7639C109.978 89.0036 109.268 89.2876 108.558 89.5982C108.558 89.5982 107.83 89.9177 107.732 89.9621C106.711 90.4502 105.709 91.0271 104.688 91.6839C103.454 92.5004 102.345 93.3702 101.298 94.3465C100.57 95.021 100.224 95.4293 100.206 95.447C100.082 95.589 100.099 95.7931 100.241 95.9174C100.304 95.9706 100.383 95.9973 100.463 95.9973C100.561 95.9973 100.65 95.9618 100.712 95.8819C100.712 95.8819 101.058 95.4825 101.75 94.8346C102.771 93.885 103.854 93.0418 105.052 92.243C106.214 91.4798 107.377 90.8585 108.549 90.326C108.655 90.2816 109.374 89.9621 109.374 89.9621C109.88 89.758 110.395 89.5627 110.909 89.3941C111.3 89.261 111.708 89.1456 112.116 89.0302C112.711 88.977 113.27 89.0657 113.75 89.1633C113.865 89.1899 113.971 89.2255 114.078 89.2698C114.025 89.5272 114.247 89.8822 114.619 90.2727C114.859 90.5212 115.161 90.7875 115.498 91.0449C115.826 91.3023 116.164 91.5508 116.652 91.7371C118.498 92.527 120.06 92.4827 120.708 91.9679C121.356 91.3821 120.876 90.6899 119.021 89.8822C118.098 89.4917 117.024 89.1633 116.11 89.0036C115.489 88.8882 114.948 88.8527 114.566 88.9237C114.344 88.8349 114.105 88.7462 113.856 88.6841C113.821 88.6752 113.785 88.6752 113.75 88.6663C114.681 88.4888 115.658 88.329 116.652 88.1782C116.9 88.1427 117.158 88.0983 117.406 88.0539C118.214 88.0805 118.986 88.2314 119.714 88.4533C119.607 88.7551 119.882 89.1988 120.406 89.6426C121.045 90.1574 122.075 90.6632 123.237 91.0005C125.571 91.7371 127.346 91.2224 128.003 90.4946C128.678 89.7402 127.941 88.9503 125.678 88.4711C124.56 88.2758 123.246 88.0184 122.154 87.9385C121.347 87.8764 120.663 87.9297 120.22 88.0717C119.873 87.9563 119.51 87.8587 119.146 87.7699C119.163 87.7699 119.172 87.7699 119.19 87.761C119.74 87.6989 120.282 87.548 120.796 87.3972C121.036 87.3261 121.285 87.264 121.542 87.193C121.817 87.1132 122.101 87.0421 122.376 86.9711C122.882 86.838 123.406 86.696 123.938 86.5363L124.08 86.483C124.826 86.3942 125.447 86.3765 126.042 86.4209C126.202 86.4297 126.352 86.4564 126.503 86.4741C126.423 86.8469 126.805 87.2818 127.506 87.6812C127.923 87.9208 128.456 88.1515 129.05 88.3379C129.636 88.4888 130.284 88.6042 130.967 88.6663C132.317 88.7639 133.541 88.6841 134.429 88.3557C135.316 88.0184 135.938 87.5569 136.231 87.0599C136.825 86.0659 135.822 85.3558 133.195 85.3292C132.867 85.3203 132.53 85.3381 132.192 85.3381C131.837 85.3292 131.482 85.3292 131.136 85.3381C130.435 85.3558 129.752 85.4002 129.139 85.4801C128.207 85.631 127.409 85.773 126.929 86.0215C126.645 85.9771 126.361 85.9416 126.068 85.9239C125.917 85.9061 125.758 85.9061 125.598 85.8972L127.559 85.1517L130.621 83.6252C131.278 83.4388 131.953 83.2702 132.645 83.1814C132.796 83.1637 132.956 83.1459 133.106 83.137C133.089 83.5187 133.541 83.8826 134.305 84.1488C135.192 84.4417 136.577 84.6902 137.899 84.5127C139.248 84.3707 140.393 84.0246 141.245 83.5808C142.079 83.1193 142.576 82.5158 142.78 81.9833C143.18 80.8827 142.079 80.3768 139.505 80.8383C138.174 81.0158 136.701 81.3087 135.538 81.7081C134.97 81.9211 134.411 82.072 134.003 82.2761C133.772 82.3826 133.586 82.498 133.444 82.6134C133.151 82.6311 132.858 82.6489 132.592 82.6844C132.423 82.7021 132.263 82.7465 132.095 82.782L133.524 81.8856C134.313 81.433 135.041 80.865 135.742 80.3058L136.63 79.6136C137.42 79.2319 138.21 78.9302 139.026 78.7083C139.159 79.5337 141.52 79.8354 143.996 79.2142C146.579 78.4332 148.221 77.0309 148.345 75.8593C148.523 74.6967 147.387 74.4215 144.902 75.3002C143.615 75.6996 142.239 76.2765 141.174 76.88C140.278 77.2882 139.576 77.7231 139.239 78.1403C138.813 78.2468 138.396 78.371 137.979 78.5219L138.103 78.4065C139.488 77.1817 140.775 75.8682 141.973 74.4837C142.514 74.0932 143.091 73.7914 143.65 73.4896C143.783 73.4186 143.916 73.3476 144.058 73.2855C144.316 74.102 146.668 73.96 149.038 72.9128C150.271 72.327 151.168 71.5637 151.807 70.8537C152.437 70.1348 152.774 69.4425 152.738 68.8479C152.721 68.2621 152.419 67.9426 151.833 67.9426C151.247 67.9337 150.431 68.2799 149.224 68.8923C148.017 69.5047 146.845 70.3744 145.834 71.1022C145.044 71.6613 144.44 72.2205 144.183 72.682C143.916 72.8062 143.659 72.9216 143.419 73.0548C143.269 73.1346 143.118 73.2145 142.967 73.2944C144.165 71.7945 145.257 70.2235 146.233 68.5816C146.65 68.1379 147.129 67.7207 147.688 67.3302C147.822 67.2326 147.946 67.1438 148.07 67.0551C148.461 67.8272 150.75 67.2592 152.863 65.7948C154.043 65.0315 154.735 64.0996 155.232 63.2831C155.712 62.4577 155.907 61.7033 155.818 61.153C155.552 59.9904 154.451 60.1413 152.339 61.8098C150.573 63.3452 148.452 65.2889 148.07 66.4516C147.857 66.6024 147.635 66.7622 147.396 66.9397C147.262 67.0373 147.138 67.135 147.005 67.2326C147.901 65.5818 148.682 63.8777 149.33 62.1293C149.774 61.4104 150.316 60.7803 150.884 60.2211C151.114 60.514 151.7 60.4963 152.463 60.2034C153.342 59.8484 154.398 59.094 155.366 58.1177C155.845 57.6296 156.262 57.1326 156.599 56.6444C156.892 56.1563 157.114 55.6681 157.274 55.2244C157.584 54.328 157.629 53.547 157.433 53.0144C157.052 51.9317 155.871 52.26 154.15 54.2925C153.724 54.7984 153.298 55.3486 152.916 55.9166C152.472 56.4669 152.073 57.0261 151.736 57.5497C151.212 58.3485 150.892 59.0762 150.804 59.5999C150.484 59.9016 150.174 60.2123 149.872 60.5584C150.156 59.662 150.422 58.7656 150.635 57.8514L151.185 55.5794Z" fill="#000D0C"/>
<path d="M59.362 40.3936H60.3649V35.3525H62.2465V34.4561H57.4893V35.3525H59.362V40.3936Z" fill="#000D0C"/>
<path d="M63.6931 38.0334C63.773 37.2613 64.3498 36.7287 65.2551 36.782V35.8501C64.5451 35.8501 64.0037 36.1696 63.6931 36.782V35.8856H62.7168V40.3942H63.6931V38.0334Z" fill="#000D0C"/>
<path d="M67.5627 40.4299C68.2994 40.421 68.8674 40.1459 69.1691 39.5157V40.3944H70.1454V35.8857H69.1691V38.1046C69.1691 38.8945 68.7076 39.498 67.9355 39.5157C67.2787 39.5157 66.8882 39.0986 66.8882 38.4241V35.8857H65.9119V38.6903C65.9119 39.7642 66.5332 40.4299 67.5627 40.4299Z" fill="#000D0C"/>
<path d="M72.9056 39.6665C72.4175 39.6665 71.7873 39.4535 71.3968 39.1074L71.0507 39.7997C71.5033 40.2079 72.2044 40.4298 72.8612 40.4298C73.7665 40.4298 74.5919 40.0127 74.5919 39.0896C74.6008 37.4566 72.2044 37.9004 72.2044 37.075C72.2044 36.7555 72.4885 36.6223 72.8701 36.6223C73.2695 36.6223 73.7665 36.7732 74.1659 37.0217L74.5209 36.3028C74.1126 36.0188 73.5091 35.8413 72.9411 35.8413C72.0802 35.8413 71.2814 36.2318 71.2814 37.146C71.2725 38.7701 73.6511 38.2554 73.6511 39.1784C73.6422 39.5157 73.3227 39.6665 72.9056 39.6665Z" fill="#000D0C"/>
<path d="M75.7546 39.1248C75.7546 40.0478 76.3403 40.4383 77.0148 40.4383C77.3965 40.4383 77.7692 40.323 78.1242 40.11L77.8757 39.3644C77.6095 39.4887 77.3965 39.5597 77.2012 39.5597C76.8995 39.5597 76.722 39.4177 76.722 38.9473V36.7817H78.0532V36.054H76.722V34.8203H75.7546V36.054H75.1155V36.7817H75.7546V39.1248Z" fill="#000D0C"/>
<path d="M80.8578 40.4297C81.6388 40.4297 82.2778 40.1546 82.7216 39.6665L82.2068 39.1162C81.8785 39.4534 81.4258 39.6398 80.9377 39.6398C80.2277 39.6398 79.6951 39.2049 79.5354 38.5127H82.9435C83.0589 36.8885 82.4198 35.8501 80.8312 35.8501C79.491 35.859 78.5502 36.782 78.5502 38.1488C78.5502 39.5067 79.4644 40.4297 80.8578 40.4297ZM80.84 36.6311C81.5767 36.6311 82.0648 37.0749 82.0915 37.8027H79.5176C79.6241 37.0749 80.13 36.6311 80.84 36.6311Z" fill="#000D0C"/>
<path d="M85.6949 40.4385C86.4138 40.4385 86.9551 40.1545 87.2835 39.622V40.3941H88.2598V34.1016H87.2835V36.6576C86.9551 36.134 86.4138 35.8322 85.6771 35.8322C84.408 35.8322 83.5293 36.7553 83.5293 38.1132C83.5382 39.4977 84.3991 40.4385 85.6949 40.4385ZM85.899 36.6754C86.7155 36.6754 87.2835 37.2878 87.2835 38.1576C87.2835 39.0096 86.7155 39.622 85.899 39.622C85.0736 39.622 84.5145 39.0096 84.5056 38.1576C84.5233 37.2878 85.0913 36.6754 85.899 36.6754Z" fill="#000D0C"/>
<path d="M92.9459 39.613C93.2743 40.1366 93.8157 40.4295 94.5434 40.4295C95.8303 40.4295 96.6824 39.5065 96.6824 38.1575C96.6824 36.7818 95.8126 35.8499 94.5257 35.8499C93.8245 35.8499 93.2831 36.1428 92.9459 36.6664V34.1104H91.9696V40.4029H92.9459V39.613ZM94.3215 36.6664C95.1292 36.6664 95.6972 37.2877 95.6972 38.122C95.6972 38.9829 95.1292 39.5953 94.3215 39.5953C93.5139 39.5953 92.9459 38.9917 92.9459 38.122C92.9459 37.2699 93.5139 36.6664 94.3215 36.6664Z" fill="#000D0C"/>
<path d="M98.4752 40.6602C98.3243 40.9975 98.0846 41.1572 97.7918 41.1572C97.5876 41.1572 97.419 41.0862 97.206 40.9354L96.7889 41.6898C97.0995 41.956 97.4279 42.0714 97.8273 42.0714C98.5018 42.0714 99.0165 41.7164 99.2917 41.0064L101.342 35.8765H100.366L99.1142 39.2934L97.7651 35.8765H96.7534L98.6172 40.323L98.4752 40.6602Z" fill="#000D0C"/>
<path d="M23.1332 47.6005C23.1332 49.3223 24.5088 50.627 26.3194 50.627C28.1299 50.627 29.5056 49.3134 29.5056 47.6005C29.5056 45.8787 28.1299 44.5918 26.3194 44.5918C24.5 44.5918 23.1332 45.8698 23.1332 47.6005ZM28.1299 47.6005C28.1299 48.6389 27.3223 49.4554 26.3371 49.4554C25.352 49.4554 24.5088 48.6389 24.5088 47.6005C24.5088 46.5621 25.3431 45.7633 26.3371 45.7633C27.3223 45.7545 28.1299 46.5532 28.1299 47.6005Z" fill="#000D0C"/>
<path d="M31.0233 46.0034L29.6743 46.0123L31.4049 50.5653H32.7451L34.4669 46.0034H33.1711L32.0972 49.3316L31.0233 46.0034Z" fill="#000D0C"/>
<path d="M36.8454 45.9585C35.452 45.9585 34.4935 46.8904 34.4935 48.3016C34.4935 49.6861 35.4165 50.618 36.872 50.618C37.6974 50.618 38.3631 50.3251 38.8246 49.8104L38.1412 49.1181C37.8306 49.4287 37.4223 49.5973 36.9874 49.5973C36.4016 49.5973 35.9579 49.2601 35.807 48.6832H39.082C39.1973 47.0235 38.4518 45.9585 36.8454 45.9585ZM35.7893 47.9111C35.8869 47.3075 36.2774 46.917 36.8543 46.917C37.4578 46.917 37.8483 47.3075 37.8661 47.9111H35.7893Z" fill="#000D0C"/>
<path d="M39.9518 46.003V50.5648H41.2564V48.3727C41.2564 47.6005 41.8333 47.1035 42.7652 47.1834V45.9497C42.0907 45.9586 41.5671 46.2603 41.2564 46.8195V45.9941H39.9518V46.003Z" fill="#000D0C"/>
<path d="M47.4247 50.5645V44.627H44.9662V45.7541H46.0845V50.5645H47.4247Z" fill="#000D0C"/>
<path d="M51.2855 50.6092C52.9452 50.6092 53.8682 49.5353 53.8682 47.5916C53.8682 45.6568 52.9452 44.5918 51.2855 44.5918C49.6081 44.5918 48.6939 45.6568 48.6939 47.5916C48.685 49.5264 49.5992 50.6092 51.2855 50.6092ZM51.2855 45.6125C52.1198 45.6125 52.5014 46.1982 52.5014 47.5916C52.5014 48.9939 52.1198 49.5797 51.2855 49.5797C50.4423 49.5797 50.0607 48.985 50.0607 47.5916C50.0607 46.1982 50.4423 45.6125 51.2855 45.6125Z" fill="#000D0C"/>
<path d="M57.2053 50.6092C58.865 50.6092 59.788 49.5353 59.788 47.5916C59.788 45.6568 58.865 44.5918 57.2053 44.5918C55.5279 44.5918 54.6137 45.6568 54.6137 47.5916C54.6137 49.5264 55.5279 50.6092 57.2053 50.6092ZM57.2053 45.6125C58.0396 45.6125 58.4212 46.1982 58.4212 47.5916C58.4212 48.9939 58.0396 49.5797 57.2053 49.5797C56.3621 49.5797 55.9805 48.985 55.9805 47.5916C55.9894 46.1982 56.371 45.6125 57.2053 45.6125Z" fill="#000D0C"/>
<path d="M64.1369 46.7929V46.003H62.8322V50.5648H64.1369V48.3105C64.1369 47.6538 64.5185 47.1567 65.1575 47.1479C65.69 47.1479 66.0273 47.494 66.0273 48.0798V50.5648H67.3231V48.3105C67.3231 47.6538 67.7047 47.1567 68.3349 47.1479C68.8763 47.1479 69.2135 47.494 69.2135 48.0798V50.5648H70.5093V47.6981C70.5093 46.6331 69.8703 45.9497 68.8674 45.9497C68.0952 45.9586 67.5183 46.2958 67.2255 46.997C67.0036 46.3313 66.4533 45.9497 65.6812 45.9497C64.9978 45.9586 64.4653 46.2337 64.1369 46.7929Z" fill="#000D0C"/>
<path d="M72.2931 43.9795C71.876 43.9795 71.592 44.2813 71.592 44.7073C71.592 45.1333 71.876 45.435 72.2931 45.435C72.7103 45.435 72.9943 45.1333 72.9943 44.7073C72.9943 44.2813 72.7103 43.9795 72.2931 43.9795Z" fill="#000D0C"/>
<path d="M72.95 46.0034H71.6453V50.5653H72.95V46.0034Z" fill="#000D0C"/>
<path d="M75.5505 44.2725H74.2458V50.565H75.5505V44.2725Z" fill="#000D0C"/>
<path d="M78.2041 44.2725H76.8995V50.565H78.2041V44.2725Z" fill="#000D0C"/>
<path d="M80.8135 46.0034H79.5088V50.5653H80.8135V46.0034Z" fill="#000D0C"/>
<path d="M80.1656 43.9795C79.7484 43.9795 79.4644 44.2813 79.4644 44.7073C79.4644 45.1333 79.7484 45.435 80.1656 45.435C80.5827 45.435 80.8667 45.1333 80.8667 44.7073C80.8667 44.2813 80.5738 43.9795 80.1656 43.9795Z" fill="#000D0C"/>
<path d="M81.6832 48.2838C81.6832 49.6772 82.6684 50.618 84.1328 50.618C85.5883 50.618 86.5735 49.6772 86.5735 48.2838C86.5735 46.8815 85.5883 45.9585 84.1328 45.9585C82.6595 45.9585 81.6832 46.8815 81.6832 48.2838ZM85.2688 48.3016C85.2688 49.0471 84.7984 49.553 84.1328 49.553C83.4583 49.553 82.9968 49.0471 82.9968 48.3016C82.9968 47.556 83.4583 47.0502 84.1328 47.0502C84.7984 47.0502 85.2688 47.556 85.2688 48.3016Z" fill="#000D0C"/>
<path d="M91.9874 50.5648V47.6981C91.9874 46.6331 91.3306 45.9497 90.3188 45.9497C89.6088 45.9586 89.0674 46.2337 88.739 46.8017V46.003H87.4344V50.5648H88.739V48.3194C88.739 47.6538 89.1296 47.1567 89.7775 47.1479C90.3366 47.1479 90.6739 47.5029 90.6739 48.0798V50.5648H91.9874Z" fill="#000D0C"/>
<path d="M98.3508 48.0798V50.5648H99.6466V48.3105C99.6466 47.6538 100.028 47.1567 100.658 47.1479C101.2 47.1479 101.537 47.494 101.537 48.0798V50.5648H102.833V47.6981C102.833 46.6331 102.194 45.9497 101.191 45.9497C100.419 45.9586 99.8419 46.2958 99.549 46.997C99.3271 46.3313 98.7769 45.9497 98.0047 45.9497C97.3213 45.9586 96.7799 46.2337 96.4604 46.7929V46.003H95.1558V50.5648H96.4604V48.3105C96.4604 47.6538 96.8421 47.1567 97.4811 47.1479C98.0136 47.1479 98.3508 47.494 98.3508 48.0798Z" fill="#000D0C"/>
<path d="M105.957 50.618C106.782 50.618 107.448 50.3251 107.91 49.8104L107.226 49.1181C106.916 49.4287 106.507 49.5973 106.072 49.5973C105.487 49.5973 105.043 49.2601 104.892 48.6832H108.167C108.273 47.0235 107.528 45.9585 105.93 45.9585C104.537 45.9585 103.578 46.8904 103.578 48.3016C103.578 49.6861 104.502 50.618 105.957 50.618ZM105.93 46.917C106.534 46.917 106.924 47.3075 106.942 47.9111H104.865C104.963 47.3075 105.354 46.917 105.93 46.917Z" fill="#000D0C"/>
<path d="M110.333 48.3105C110.333 47.6538 110.714 47.1567 111.353 47.1479C111.886 47.1479 112.223 47.494 112.223 48.0798V50.5648H113.519V48.3105C113.519 47.6538 113.9 47.1567 114.531 47.1479C115.072 47.1479 115.409 47.494 115.409 48.0798V50.5648H116.705V47.6981C116.705 46.6331 116.066 45.9497 115.063 45.9497C114.291 45.9586 113.714 46.2958 113.421 46.997C113.199 46.3313 112.649 45.9497 111.877 45.9497C111.193 45.9586 110.652 46.2337 110.333 46.7929V46.003H109.028V50.5648H110.333V48.3105Z" fill="#000D0C"/>
<path d="M117.876 44.2725V50.5651H119.181V49.8995C119.51 50.361 120.015 50.6095 120.646 50.6095C121.924 50.6095 122.767 49.6864 122.767 48.3019C122.767 46.8907 121.906 45.95 120.619 45.95C119.998 45.95 119.501 46.2074 119.181 46.66V44.2637H117.876V44.2725ZM120.317 47.015C120.983 47.015 121.444 47.5386 121.444 48.2664C121.444 49.0119 120.983 49.5267 120.317 49.5267C119.652 49.5267 119.181 49.0208 119.181 48.2664C119.181 47.5298 119.643 47.015 120.317 47.015Z" fill="#000D0C"/>
<path d="M125.58 45.9585C124.187 45.9585 123.228 46.8904 123.228 48.3016C123.228 49.6861 124.151 50.618 125.607 50.618C126.432 50.618 127.098 50.3251 127.559 49.8104L126.876 49.1181C126.565 49.4287 126.157 49.5973 125.722 49.5973C125.136 49.5973 124.693 49.2601 124.542 48.6832H127.817C127.932 47.0235 127.187 45.9585 125.58 45.9585ZM124.524 47.9111C124.622 47.3075 125.012 46.917 125.589 46.917C126.192 46.917 126.583 47.3075 126.601 47.9111H124.524Z" fill="#000D0C"/>
<path d="M128.686 46.003V50.5648H129.991V48.3727C129.991 47.6005 130.568 47.1035 131.5 47.1834V45.9497C130.825 45.9586 130.302 46.2603 129.991 46.8195V45.9941H128.686V46.003Z" fill="#000D0C"/>
<path d="M133.745 49.6684C133.248 49.6684 132.636 49.4642 132.157 49.1003L131.731 49.979C132.245 50.3961 132.964 50.618 133.71 50.618C134.748 50.618 135.565 50.1299 135.565 49.198C135.574 47.5915 133.169 47.9377 133.169 47.2454C133.169 47.0058 133.39 46.9081 133.692 46.9081C134.074 46.9081 134.58 47.0679 135.086 47.3519L135.538 46.4644C135.032 46.1449 134.384 45.9585 133.754 45.9585C132.76 45.9585 131.961 46.4378 131.961 47.3785C131.961 48.985 134.331 48.5944 134.331 49.3222C134.322 49.553 134.074 49.6684 133.745 49.6684Z" fill="#000D0C"/>
<path d="M62.2907 59.7688L61.1458 56.2275H60.1429L59.0069 59.7688L57.8354 56.2275H56.8325L58.4921 60.7362H59.495L60.6399 57.3991L61.7848 60.7362H62.7966L64.4385 56.2275H63.4445L62.2907 59.7688Z" fill="#000D0C"/>
<path d="M66.8794 56.1914C65.4771 56.1914 64.5186 57.1144 64.5186 58.4812C64.5186 59.8391 65.4771 60.771 66.8794 60.771C68.2728 60.771 69.2313 59.8391 69.2313 58.4812C69.2313 57.1144 68.2728 56.1914 66.8794 56.1914ZM66.8794 59.9545C66.0629 59.9545 65.4948 59.3599 65.4948 58.4901C65.4948 57.6292 66.0629 57.0346 66.8794 57.0346C67.687 57.0346 68.255 57.6292 68.255 58.4901C68.255 59.3599 67.687 59.9545 66.8794 59.9545Z" fill="#000D0C"/>
<path d="M71.2193 57.1233V56.2269H70.243V60.7355H71.2193V58.3747C71.2992 57.6026 71.8761 57.0701 72.7814 57.1233V56.1914C72.0713 56.1914 71.5211 56.5109 71.2193 57.1233Z" fill="#000D0C"/>
<path d="M74.6007 54.4434H73.6245V60.7359H74.6007V54.4434Z" fill="#000D0C"/>
<path d="M79.4111 57.0083C79.0827 56.4847 78.5413 56.1829 77.8047 56.1829C76.5355 56.1829 75.6569 57.1059 75.6569 58.4638C75.6569 59.8395 76.5178 60.7803 77.8224 60.7803C78.5413 60.7803 79.0827 60.4963 79.4111 59.9638V60.7359H80.3874V54.4434H79.4111V57.0083ZM78.0265 59.9638C77.2012 59.9638 76.642 59.3514 76.6331 58.4993C76.642 57.6384 77.21 57.0172 78.0265 57.0172C78.8431 57.0172 79.4111 57.6296 79.4111 58.4993C79.4111 59.3514 78.8431 59.9638 78.0265 59.9638Z" fill="#000D0C"/>
<path d="M86.6179 59.7688L85.473 56.2275H84.4612L83.3252 59.7688L82.1537 56.2275H81.1508L82.8193 60.7362H83.8133L84.9582 57.3991L86.1031 60.7362H87.1149L88.7568 56.2275H87.7628L86.6179 59.7688Z" fill="#000D0C"/>
<path d="M90.3987 56.2275H89.4313V60.7362H90.3987V56.2275Z" fill="#000D0C"/>
<path d="M89.9195 54.3452C89.6 54.3452 89.3515 54.5937 89.3515 54.9399C89.3515 55.2771 89.6 55.5256 89.9195 55.5256C90.239 55.5256 90.4875 55.2771 90.4875 54.9399C90.4875 54.5937 90.239 54.3452 89.9195 54.3452Z" fill="#000D0C"/>
<path d="M95.1647 57.0083C94.8363 56.4847 94.2949 56.1829 93.5583 56.1829C92.2891 56.1829 91.4105 57.1059 91.4105 58.4638C91.4105 59.8395 92.2714 60.7803 93.576 60.7803C94.2949 60.7803 94.8363 60.4963 95.1647 59.9638V60.7359H96.141V54.4434H95.1647V57.0083ZM93.7802 59.9638C92.9548 59.9638 92.3956 59.3514 92.3867 58.4993C92.3956 57.6384 92.9636 57.0172 93.7802 57.0172C94.5967 57.0172 95.1647 57.6296 95.1647 58.4993C95.1647 59.3514 94.5967 59.9638 93.7802 59.9638Z" fill="#000D0C"/>
<path d="M100.854 59.4575C100.525 59.7948 100.073 59.9811 99.5846 59.9811C98.8746 59.9811 98.3421 59.5463 98.1823 58.854H101.59C101.706 57.2298 101.067 56.1914 99.4781 56.1914C98.1379 56.2003 97.1971 57.1233 97.1971 58.4901C97.1971 59.848 98.1113 60.771 99.5047 60.771C100.286 60.771 100.925 60.4959 101.369 60.0078L100.854 59.4575ZM99.487 56.9724C100.224 56.9724 100.712 57.4162 100.738 58.144H98.1645C98.2799 57.4251 98.7769 56.9724 99.487 56.9724Z" fill="#000D0C"/>
</svg>
