<svg width="59" height="9" viewBox="0 0 59 9" fill="none" xmlns="http://www.w3.org/2000/svg">
<path d="M1.3853 5.16739L3.88104 0.516739H2.62767L0 5.35429V6.3218H3.67214V8.21285H4.88153V6.3218H6.00297V5.16739H4.88153V3.34231H3.67214V5.16739H1.3853Z" fill="white"/>
<path d="M7.45019 6.86053C7.05439 6.86053 6.75754 7.15738 6.75754 7.57517C6.75754 8.00395 7.05439 8.3118 7.45019 8.3118C7.84599 8.3118 8.14284 8.00395 8.14284 7.57517C8.14284 7.15738 7.84599 6.86053 7.45019 6.86053Z" fill="white"/>
<path d="M14.6491 1.50624V0.516739H9.05289V2.7596H10.1963L10.2073 1.68215H13.1978L10.2073 8.21285H11.5816L14.6491 1.50624Z" fill="white"/>
<path d="M21.1921 2.31983C19.378 2.31983 18.1357 3.51822 18.1357 5.28833C18.1357 7.04744 19.378 8.25683 21.1921 8.25683C22.9952 8.25683 24.2376 7.04744 24.2376 5.28833C24.2376 3.51822 22.9952 2.31983 21.1921 2.31983ZM21.1921 3.40828C22.2366 3.40828 22.9732 4.17789 22.9732 5.29932C22.9732 6.43175 22.2366 7.20136 21.1921 7.20136C20.1367 7.20136 19.4 6.43175 19.4 5.29932C19.4 4.17789 20.1367 3.40828 21.1921 3.40828Z" fill="white"/>
<path d="M30.8672 2.36381H29.6029V5.24435C29.6029 6.26683 29.0092 7.04744 27.9977 7.06943C27.1511 7.06943 26.6344 6.5307 26.6344 5.65114V2.36381H25.37V6.00297C25.37 7.39926 26.1726 8.25683 27.5139 8.25683C28.4705 8.24583 29.2071 7.88302 29.6029 7.06943V8.21285H30.8672V2.36381Z" fill="white"/>
<path d="M35.7303 6.87153C35.3895 7.03644 35.1146 7.1244 34.8507 7.1244C34.4549 7.1244 34.2241 6.93749 34.2241 6.3328V3.52922H35.9502V2.58369H34.2241V0.978505H32.9707V2.58369H32.1461V3.52922H32.9707V6.56368C32.9707 7.76208 33.7293 8.26782 34.6089 8.26782C35.1036 8.26782 35.5874 8.1139 36.0491 7.83904L35.7303 6.87153Z" fill="white"/>
<path d="M42.5583 2.31983C40.7442 2.31983 39.5018 3.51822 39.5018 5.28833C39.5018 7.04744 40.7442 8.25683 42.5583 8.25683C44.3614 8.25683 45.6037 7.04744 45.6037 5.28833C45.6037 3.51822 44.3614 2.31983 42.5583 2.31983ZM42.5583 3.40828C43.6028 3.40828 44.3394 4.17789 44.3394 5.29932C44.3394 6.43175 43.6028 7.20136 42.5583 7.20136C41.5028 7.20136 40.7662 6.43175 40.7662 5.29932C40.7662 4.17789 41.5028 3.40828 42.5583 3.40828Z" fill="white"/>
<path d="M49.1562 1.09944C49.4201 1.09944 49.717 1.19839 49.9588 1.37431L50.4426 0.406794C50.0688 0.131934 49.596 0 49.1232 0C48.1118 0 47.1113 0.648672 47.1113 2.01198V2.58369H46.3417V3.52922H47.1113V8.21285H48.3646V3.52922H49.8929V2.58369H48.3646V1.89104C48.3646 1.34132 48.7275 1.09944 49.1562 1.09944Z" fill="white"/>
<path d="M58.1012 1.68215L58.0902 0.516739H53.4065V4.58468C53.9233 4.52971 54.9677 4.48573 55.4295 4.48573C56.419 4.48573 57.0237 4.96949 57.0237 5.75009C57.0237 6.61865 56.419 7.13539 55.4185 7.13539C54.7259 7.13539 53.9563 6.83854 53.3406 6.3218L52.8238 7.37727C53.5824 7.905 54.6489 8.25683 55.5614 8.25683C57.2876 8.25683 58.409 7.23434 58.409 5.67313C58.409 4.32082 57.3315 3.33132 55.6604 3.33132L54.6049 3.34231V1.68215H58.1012Z" fill="white"/>
</svg>
