<svg width="187" height="69" viewBox="0 0 187 69" fill="none" xmlns="http://www.w3.org/2000/svg">
<path d="M53.5368 15.0156H70.8024V18.2252H64.0077V36.3558H60.2746V18.2252H53.5027L53.5368 15.0156ZM70.0626 20.9112H73.2494V23.9045H73.3063C73.4202 23.472 73.625 23.0851 73.9096 22.6867C74.1941 22.2884 74.5355 21.9128 74.968 21.6055C75.3664 21.264 75.8216 21.0022 76.3338 20.8088C76.8232 20.6039 77.3354 20.4901 77.8362 20.4901C78.2345 20.4901 78.519 20.5242 78.6556 20.5242C78.8036 20.5584 78.9743 20.5811 79.1109 20.5811V23.859C78.8832 23.8021 78.6215 23.7793 78.3711 23.7452C78.1207 23.711 77.8817 23.6883 77.6313 23.6883C77.0622 23.6883 76.5273 23.8021 76.0037 24.0297C75.4802 24.2573 75.0705 24.5988 74.6721 25.0313C74.2965 25.4865 73.9892 26.0328 73.7616 26.6816C73.534 27.3303 73.4202 28.1043 73.4202 28.9579V36.2989H70.0057L70.0626 20.9112ZM94.7603 36.3558H91.4028V34.1933H91.3459C90.9134 34.99 90.2874 35.5818 89.468 36.0712C88.6485 36.5606 87.7949 36.7883 86.9413 36.7883C84.9154 36.7883 83.4472 36.2989 82.5253 35.2859C81.6148 34.2844 81.1595 32.7593 81.1595 30.7334V20.9112H84.5739V30.3805C84.5739 31.7463 84.8243 32.7137 85.3707 33.26C85.8828 33.8291 86.6226 34.1136 87.5673 34.1136C88.2843 34.1136 88.8761 33.9998 89.3541 33.7722C89.8322 33.5446 90.2419 33.26 90.5264 32.8845C90.8451 32.5202 91.0386 32.065 91.1752 31.5414C91.3118 31.0179 91.38 30.4602 91.38 29.8684V20.8998H94.7945V36.3558H94.7603ZM100.565 31.4049C100.679 32.4064 101.054 33.0779 101.703 33.5104C102.352 33.9088 103.16 34.1136 104.059 34.1136C104.378 34.1136 104.742 34.0795 105.14 34.034C105.539 33.9884 105.937 33.886 106.278 33.7494C106.643 33.6015 106.927 33.408 107.166 33.1235C107.405 32.8389 107.508 32.4975 107.485 32.065C107.462 31.6325 107.314 31.2683 106.995 30.9838C106.677 30.6992 106.312 30.4944 105.857 30.3009C105.402 30.1301 104.856 29.9822 104.264 29.8684C103.672 29.7546 103.069 29.618 102.443 29.47C101.817 29.3221 101.191 29.1513 100.588 28.9579C99.9844 28.7644 99.4836 28.5026 98.9942 28.1384C98.539 27.797 98.1406 27.3645 97.8902 26.8295C97.6057 26.2946 97.4577 25.6572 97.4577 24.8719C97.4577 24.0183 97.6626 23.3354 98.0837 22.7664C98.482 22.1973 99.017 21.742 99.6543 21.4006C100.292 21.0592 100.997 20.7974 101.76 20.6608C102.522 20.5242 103.262 20.4559 103.957 20.4559C104.753 20.4559 105.527 20.5356 106.233 20.7063C106.938 20.8771 107.621 21.1388 108.19 21.5258C108.794 21.89 109.272 22.4135 109.647 23.0054C110.046 23.6086 110.273 24.3484 110.387 25.202H106.825C106.654 24.3825 106.29 23.8362 105.721 23.5517C105.117 23.2672 104.469 23.1192 103.695 23.1192C103.467 23.1192 103.16 23.1533 102.841 23.1761C102.5 23.233 102.215 23.2899 101.908 23.4037C101.623 23.5175 101.373 23.6883 101.168 23.8931C100.963 24.098 100.849 24.3825 100.849 24.724C100.849 25.1565 100.997 25.4638 101.282 25.7255C101.566 25.9873 101.931 26.1808 102.42 26.3743C102.875 26.545 103.422 26.693 104.013 26.8068C104.605 26.9206 105.231 27.0572 105.869 27.2051C106.506 27.3531 107.086 27.5238 107.69 27.7173C108.293 27.9108 108.828 28.1725 109.283 28.5367C109.738 28.8782 110.137 29.3107 110.421 29.8228C110.706 30.335 110.854 30.9951 110.854 31.7349C110.854 32.6454 110.649 33.408 110.228 34.0681C109.795 34.6941 109.26 35.2404 108.6 35.6388C107.94 36.0371 107.177 36.3216 106.381 36.5265C105.561 36.6972 104.753 36.811 103.957 36.811C102.989 36.811 102.079 36.6972 101.248 36.4696C100.417 36.242 99.6771 35.9005 99.0853 35.468C98.482 35.0128 98.004 34.4665 97.6626 33.795C97.3211 33.1462 97.1277 32.3381 97.0935 31.4049H100.542V31.439L100.565 31.4049ZM111.798 20.9112H114.393V16.2448H117.808V20.8771H120.881V23.4037H117.808V31.6553C117.808 32.0195 117.842 32.304 117.865 32.5885C117.899 32.8389 117.978 33.0779 118.069 33.2373C118.183 33.408 118.354 33.556 118.559 33.6356C118.786 33.7153 119.071 33.7836 119.469 33.7836C119.697 33.7836 119.959 33.7836 120.186 33.7494C120.414 33.7153 120.676 33.6925 120.903 33.6356V36.2761C120.539 36.333 120.164 36.3558 119.799 36.3899C119.401 36.4696 119.06 36.4696 118.661 36.4696C117.751 36.4696 117.034 36.3899 116.499 36.2192C115.964 36.0485 115.531 35.7867 115.213 35.4794C114.894 35.138 114.701 34.7396 114.587 34.2616C114.473 33.7836 114.416 33.1804 114.382 32.5544V23.4493H111.787V20.8543L111.798 20.9112ZM123.271 20.9112H126.48V23.0168H126.537C127.027 22.1062 127.675 21.4803 128.529 21.0819C129.383 20.6836 130.293 20.4787 131.317 20.4787C132.535 20.4787 133.594 20.6836 134.504 21.1274C135.415 21.5599 136.155 22.129 136.746 22.8916C137.35 23.6314 137.805 24.5191 138.089 25.5093C138.374 26.4995 138.545 27.5807 138.545 28.6961C138.545 29.7546 138.397 30.7447 138.146 31.7122C137.862 32.6796 137.463 33.5673 136.928 34.3071C136.394 35.0469 135.711 35.6501 134.857 36.094C134.003 36.5379 133.036 36.7769 131.898 36.7769C131.408 36.7769 130.896 36.72 130.418 36.6289C129.94 36.5379 129.451 36.4013 128.996 36.1964C128.54 35.9916 128.108 35.7412 127.744 35.4225C127.345 35.1038 127.027 34.7396 126.776 34.3413H126.719V42.0579H123.305V20.8884L123.271 20.9112ZM135.187 28.6506C135.187 27.9677 135.107 27.2848 134.903 26.6247C134.732 25.9759 134.447 25.4069 134.083 24.8833C133.719 24.3598 133.264 23.9728 132.74 23.6655C132.205 23.3468 131.568 23.2102 130.885 23.2102C129.462 23.2102 128.381 23.6996 127.641 24.6898C126.924 25.6914 126.56 27.023 126.56 28.6733C126.56 29.47 126.64 30.1757 126.845 30.8358C127.049 31.4959 127.3 32.0536 127.698 32.543C128.062 33.0324 128.518 33.3966 129.064 33.6812C129.61 33.9657 130.202 34.1136 130.919 34.1136C131.716 34.1136 132.342 33.9429 132.877 33.6242C133.412 33.3056 133.844 32.8845 134.22 32.4064C134.561 31.8943 134.823 31.3252 134.959 30.6651C135.107 29.9822 135.187 29.3334 135.187 28.6506ZM141.197 15.0156H144.611V18.2252H141.197V15.0156ZM141.197 20.9112H144.611V36.3558H141.197V20.9112ZM147.65 15.0156H151.064V36.3558H147.65V15.0156ZM161.478 36.7883C160.26 36.7883 159.145 36.5834 158.178 36.1623C157.21 35.7412 156.413 35.1949 155.731 34.4892C155.082 33.7722 154.57 32.8958 154.228 31.8943C153.887 30.8927 153.682 29.7887 153.682 28.6164C153.682 27.4441 153.853 26.3743 154.228 25.3727C154.57 24.3712 155.082 23.5175 155.731 22.7778C156.379 22.0607 157.21 21.4917 158.178 21.1047C159.145 20.7177 160.249 20.4787 161.478 20.4787C162.707 20.4787 163.811 20.6836 164.779 21.1047C165.746 21.503 166.543 22.0721 167.226 22.7778C167.875 23.4948 168.387 24.3712 168.728 25.3727C169.07 26.3743 169.274 27.4441 169.274 28.6164C169.274 29.8115 169.104 30.8927 168.728 31.8943C168.353 32.8958 167.875 33.7494 167.226 34.4892C166.577 35.2063 165.746 35.7753 164.779 36.1623C163.811 36.5493 162.73 36.7883 161.478 36.7883ZM161.478 34.0795C162.218 34.0795 162.901 33.9088 163.447 33.5901C164.016 33.2714 164.449 32.8503 164.813 32.3381C165.177 31.826 165.439 31.2341 165.61 30.5968C165.78 29.948 165.871 29.2879 165.871 28.605C165.871 27.9563 165.792 27.2962 165.61 26.6474C165.428 25.9987 165.177 25.4296 164.813 24.9061C164.449 24.3825 163.982 23.9956 163.447 23.6883C162.878 23.3696 162.229 23.1989 161.478 23.1989C160.727 23.1989 160.056 23.3696 159.509 23.6883C158.94 24.0069 158.508 24.4281 158.143 24.9061C157.779 25.4182 157.517 25.9873 157.347 26.6474C157.176 27.3076 157.085 27.9563 157.085 28.605C157.085 29.2879 157.165 29.948 157.347 30.5968C157.529 31.2455 157.779 31.8146 158.143 32.3381C158.508 32.8617 158.974 33.2714 159.509 33.5901C160.09 33.9429 160.738 34.0795 161.478 34.0795ZM170.299 20.9112H172.882V16.2448H176.297V20.8771H179.37V23.4037H176.297V31.6553C176.297 32.0195 176.32 32.304 176.354 32.5885C176.376 32.8389 176.468 33.0779 176.559 33.2373C176.672 33.408 176.843 33.556 177.048 33.6356C177.276 33.7153 177.56 33.7836 177.958 33.7836C178.186 33.7836 178.448 33.7836 178.676 33.7494C178.903 33.7153 179.165 33.6925 179.393 33.6356V36.2761C179.028 36.333 178.653 36.3558 178.277 36.3899C177.913 36.4468 177.56 36.4468 177.162 36.4468C176.251 36.4468 175.534 36.3672 174.999 36.1964C174.464 36.0257 174.032 35.7639 173.713 35.4566C173.406 35.1152 173.201 34.7169 173.087 34.2388C172.973 33.7608 172.917 33.1576 172.882 32.5316V23.4265H170.299V20.8315V20.9112Z" fill="#000D0C"/>
<path d="M49.5533 15.0158H33.9267L29.1237 0.163086L24.2866 15.0158L8.65991 14.9817L21.2933 24.1665L16.4562 39.0306L29.0896 29.8458L41.7229 39.0306L36.92 24.1779L49.5533 15.0158Z" fill="#00B67A"/>
<path d="M38.0012 27.5357L36.9199 24.1782L29.1237 29.8348L38.0012 27.5357Z" fill="#005128"/>
<path d="M118.25 60.8226L121.245 55.2421H119.741L116.588 61.0469V62.2079H120.994V64.477H122.445V62.2079H123.791V60.8226H122.445V58.6326H120.994V60.8226H118.25Z" fill="#000D0C"/>
<path d="M125.527 62.8543C125.053 62.8543 124.696 63.2105 124.696 63.7118C124.696 64.2263 125.053 64.5957 125.527 64.5957C126.002 64.5957 126.359 64.2263 126.359 63.7118C126.359 63.2105 126.002 62.8543 125.527 62.8543Z" fill="#000D0C"/>
<path d="M134.166 56.4295V55.2421H127.451V57.9334H128.823L128.836 56.6405H132.424L128.836 64.477H130.485L134.166 56.4295Z" fill="#000D0C"/>
<path d="M142.017 57.4057C139.84 57.4057 138.349 58.8437 138.349 60.9677C138.349 63.0786 139.84 64.5298 142.017 64.5298C144.181 64.5298 145.671 63.0786 145.671 60.9677C145.671 58.8437 144.181 57.4057 142.017 57.4057ZM142.017 58.7118C143.27 58.7118 144.154 59.6353 144.154 60.9809C144.154 62.3398 143.27 63.2633 142.017 63.2633C140.75 63.2633 139.867 62.3398 139.867 60.9809C139.867 59.6353 140.75 58.7118 142.017 58.7118Z" fill="#000D0C"/>
<path d="M153.627 57.4585H152.109V60.915C152.109 62.1419 151.397 63.0786 150.183 63.105C149.167 63.105 148.547 62.4585 148.547 61.4031V57.4585H147.03V61.8253C147.03 63.5007 147.993 64.5298 149.603 64.5298C150.75 64.5166 151.634 64.0812 152.109 63.105V64.477H153.627V57.4585Z" fill="#000D0C"/>
<path d="M159.462 62.8675C159.053 63.0654 158.723 63.1709 158.406 63.1709C157.932 63.1709 157.654 62.9467 157.654 62.2211V58.8569H159.726V57.7223H157.654V55.7962H156.151V57.7223H155.161V58.8569H156.151V62.4981C156.151 63.9361 157.061 64.543 158.116 64.543C158.71 64.543 159.29 64.3583 159.844 64.0284L159.462 62.8675Z" fill="#000D0C"/>
<path d="M167.655 57.4057C165.478 57.4057 163.987 58.8437 163.987 60.9677C163.987 63.0786 165.478 64.5298 167.655 64.5298C169.819 64.5298 171.309 63.0786 171.309 60.9677C171.309 58.8437 169.819 57.4057 167.655 57.4057ZM167.655 58.7118C168.908 58.7118 169.792 59.6353 169.792 60.9809C169.792 62.3398 168.908 63.2633 167.655 63.2633C166.389 63.2633 165.505 62.3398 165.505 60.9809C165.505 59.6353 166.389 58.7118 167.655 58.7118Z" fill="#000D0C"/>
<path d="M175.572 55.9413C175.889 55.9413 176.245 56.0601 176.535 56.2712L177.116 55.1102C176.667 54.7804 176.1 54.6221 175.533 54.6221C174.319 54.6221 173.118 55.4004 173.118 57.0363V57.7223H172.195V58.8569H173.118V64.477H174.622V58.8569H176.456V57.7223H174.622V56.8912C174.622 56.2316 175.058 55.9413 175.572 55.9413Z" fill="#000D0C"/>
<path d="M186.306 56.6405L186.292 55.2421H180.672V60.1234C181.292 60.0575 182.546 60.0047 183.1 60.0047C184.287 60.0047 185.013 60.5852 185.013 61.5218C185.013 62.5641 184.287 63.1841 183.087 63.1841C182.255 63.1841 181.332 62.8279 180.593 62.2079L179.973 63.4744C180.883 64.1076 182.163 64.5298 183.258 64.5298C185.329 64.5298 186.675 63.3029 186.675 61.4295C186.675 59.8068 185.382 58.6195 183.377 58.6195L182.11 58.6326V56.6405H186.306Z" fill="#000D0C"/>
<path d="M0.414429 51.2847V68.6001H17.7298V51.2847H0.414429ZM11.4863 62.1018L12.4995 65.2264L9.06363 62.7301L5.62773 65.2264L6.94096 61.1905L3.50505 58.6942L7.7504 58.6999L9.06363 54.664L10.3712 58.6999H14.6166L11.1807 61.1905L9.06363 62.7301L11.4863 62.1018Z" fill="#00B67A"/>
<path d="M21.8527 51.2847V68.6001H39.1681V51.2847H21.8527ZM32.9245 62.1018L33.9378 65.2264L30.5019 62.7301L27.066 65.2264L28.3792 61.1905L24.9433 58.6942L29.1886 58.6999L30.5019 54.664L31.8094 58.6999H36.0548L32.6189 61.1905L30.5019 62.7301L32.9245 62.1018Z" fill="#00B67A"/>
<path d="M43.2905 51.2847V68.6001H60.6059V51.2847H43.2905ZM54.3624 62.1018L55.3756 65.2264L51.9397 62.7301L48.5038 65.2264L49.8171 61.1905L46.3811 58.6942L50.6265 58.6999L51.9397 54.664L53.2473 58.6999H57.4927L54.0567 61.1905L51.9397 62.7301L54.3624 62.1018Z" fill="#00B67A"/>
<path d="M64.7289 51.2847V68.6001H82.0443V51.2847H64.7289ZM75.8008 62.1018L76.814 65.2264L73.3781 62.7301L69.9422 65.2264L71.2554 61.1905L67.8195 58.6942L72.0649 58.6999L73.3781 54.664L74.6857 58.6999H78.931L75.4951 61.1905L73.3781 62.7301L75.8008 62.1018Z" fill="#00B67A"/>
<path d="M86.1667 51.2847V68.6001H103.482V51.2847H86.1667ZM97.2386 62.1018L98.2519 65.2264L94.816 62.7301L91.38 65.2264L92.6933 61.1905L89.2574 58.6942L93.5027 58.6999L94.816 54.664L96.1235 58.6999H100.369L96.933 61.1905L94.816 62.7301L97.2386 62.1018Z" fill="#00B67A"/>
</svg>
