<svg width="17" height="17" viewBox="0 0 17 17" fill="none" xmlns="http://www.w3.org/2000/svg">
<path d="M7.59011 1.05258C7.82959 0.315529 8.87232 0.315529 9.1118 1.05258L10.4165 5.06798C10.5236 5.3976 10.8307 5.62077 11.1773 5.62077H15.3994C16.1743 5.62077 16.4966 6.61246 15.8696 7.06798L12.4539 9.54964C12.1735 9.75335 12.0562 10.1144 12.1633 10.4441L13.468 14.4595C13.7074 15.1965 12.8639 15.8094 12.2369 15.3539L8.82118 12.8722C8.54079 12.6685 8.16111 12.6685 7.88072 12.8722L4.46502 15.3539C3.83805 15.8094 2.99446 15.1965 3.23394 14.4595L4.53863 10.4441C4.64573 10.1144 4.5284 9.75335 4.24801 9.54964L0.832305 7.06798C0.205334 6.61246 0.527555 5.62077 1.30253 5.62077H5.52458C5.87116 5.62077 6.17832 5.3976 6.28542 5.06798L7.59011 1.05258Z" stroke="#FFB800"/>
</svg>
