<svg width="16" height="16" viewBox="0 0 16 16" fill="none" xmlns="http://www.w3.org/2000/svg">
<path d="M7.08913 0.552577C7.32861 -0.184471 8.37134 -0.184471 8.61082 0.552578L9.9155 4.56798C10.0226 4.8976 10.3298 5.12077 10.6763 5.12077H14.8984C15.6734 5.12077 15.9956 6.11246 15.3686 6.56798L11.9529 9.04964C11.6725 9.25335 11.5552 9.61445 11.6623 9.94406L12.967 13.9595C13.2065 14.6965 12.3629 15.3094 11.7359 14.8539L8.3202 12.3722C8.03981 12.1685 7.66014 12.1685 7.37975 12.3722L3.96404 14.8539C3.33707 15.3094 2.49349 14.6965 2.73297 13.9595L4.03765 9.94406C4.14475 9.61445 4.02742 9.25335 3.74703 9.04964L0.331329 6.56798C-0.295642 6.11246 0.0265784 5.12077 0.801557 5.12077H5.0236C5.37018 5.12077 5.67735 4.8976 5.78445 4.56798L7.08913 0.552577Z" fill="#FFB800"/>
</svg>
